<svg width="120" height="55" viewBox="0 0 120 55" fill="none" xmlns="http://www.w3.org/2000/svg">
<g id="1 LOGO">
<path id="Vector" d="M105.079 20.2724C105.067 20.811 104.569 21.2017 104.072 21.1112C104.755 21.236 106.344 21.4108 107.238 21.1112C106.72 21.1893 106.247 20.7946 106.235 20.2683C106.235 20.297 105.885 17.505 107.283 14.9227C108.48 12.7145 109.146 12.9448 110.548 12.4102C112.344 11.7235 114.19 11.0163 115.457 9.47424C117.525 6.95359 116.978 3.49951 116.801 2.56609C114.581 5.75289 112.332 4.84825 110.067 6.29978C107.764 7.77599 106.736 10.1034 106.958 12.5953C109.24 8.60661 112.122 10.3625 115.099 6.3738C114.375 7.5745 113.385 8.61895 112.151 9.36322C110.379 10.4488 109.524 10.1322 106.839 14.0304C106.346 14.7459 105.947 15.5271 105.659 16.3454C105.326 15.3997 104.845 14.4909 104.236 13.6932C103.015 12.1018 102.477 11.2013 101.408 10.4324C99.944 9.37144 97.452 8.96436 95.4419 5.61719C98.797 10.1199 101.942 8.06383 104.5 12.5418C104.754 9.70446 103.554 7.15097 101.042 5.53906C98.521 3.92305 96.0216 4.93049 93.5506 1.38184C93.3533 2.42217 92.7448 6.26689 95.0472 9.07127C96.4527 10.7843 98.495 11.5661 100.487 12.3285L100.507 12.3362C101.465 12.7022 103.928 12.8132 104.89 17.2007C105.153 18.4179 105.108 19.121 105.079 20.2724Z" fill="#00730C"/>
<path id="Vector_2" d="M2.63996 41.32C0.933286 41.32 0.0799561 40.44 0.0799561 38.68V15.4C0.0799561 13.6667 0.946626 12.8 2.67996 12.8H12.32C15.4133 12.8 17.8 13.5733 19.48 15.12C21.16 16.6667 22 18.8267 22 21.6C22 24.3733 21.16 26.5467 19.48 28.12C17.8 29.6667 15.4133 30.44 12.32 30.44H5.19996V38.68C5.19996 40.44 4.34663 41.32 2.63996 41.32ZM5.19996 26.4H11.52C15.2 26.4 17.04 24.8 17.04 21.6C17.04 18.4267 15.2 16.84 11.52 16.84H5.19996V26.4ZM32.3738 41.4C27.9204 41.4 25.6938 38.9067 25.6938 33.92V15C25.6938 13.32 26.5204 12.48 28.1738 12.48C29.8538 12.48 30.6938 13.32 30.6938 15V33.68C30.6938 36.08 31.6938 37.28 33.6938 37.28C33.9071 37.28 34.1071 37.28 34.2938 37.28C34.4804 37.2533 34.6671 37.2267 34.8537 37.2C35.2271 37.1467 35.4804 37.2533 35.6138 37.52C35.7471 37.76 35.8138 38.2667 35.8138 39.04C35.8138 39.7067 35.6804 40.2267 35.4138 40.6C35.1471 40.9733 34.7071 41.2 34.0938 41.28C33.5338 41.36 32.9604 41.4 32.3738 41.4ZM44.9072 41.4C43.4939 41.4 42.2272 41.1333 41.1072 40.6C40.0139 40.04 39.1472 39.2933 38.5072 38.36C37.8939 37.4267 37.5872 36.3733 37.5872 35.2C37.5872 33.76 37.9605 32.6267 38.7072 31.8C39.4539 30.9467 40.6672 30.3333 42.3472 29.96C44.0272 29.5867 46.2805 29.4 49.1072 29.4H50.5072V28.56C50.5072 27.2267 50.2139 26.2667 49.6272 25.68C49.0405 25.0933 48.0539 24.8 46.6672 24.8C45.8939 24.8 45.0539 24.8933 44.1472 25.08C43.2672 25.2667 42.3339 25.5867 41.3472 26.04C40.7072 26.3333 40.1739 26.3733 39.7472 26.16C39.3205 25.92 39.0272 25.56 38.8672 25.08C38.7339 24.5733 38.7605 24.0667 38.9472 23.56C39.1605 23.0533 39.5739 22.68 40.1872 22.44C41.4139 21.9333 42.5872 21.5733 43.7072 21.36C44.8539 21.1467 45.8939 21.04 46.8272 21.04C49.6805 21.04 51.8005 21.7067 53.1872 23.04C54.5739 24.3467 55.2672 26.3867 55.2672 29.16V38.76C55.2672 40.4667 54.4939 41.32 52.9472 41.32C51.3739 41.32 50.5872 40.4667 50.5872 38.76V37.88C50.1339 38.9733 49.4139 39.84 48.4272 40.48C47.4405 41.0933 46.2672 41.4 44.9072 41.4ZM45.9472 37.96C47.2539 37.96 48.3339 37.5067 49.1872 36.6C50.0672 35.6933 50.5072 34.5467 50.5072 33.16V32.28H49.1472C46.6405 32.28 44.8939 32.48 43.9072 32.88C42.9472 33.2533 42.4672 33.9467 42.4672 34.96C42.4672 35.84 42.7739 36.56 43.3872 37.12C44.0005 37.68 44.8539 37.96 45.9472 37.96ZM62.8222 41.32C61.1688 41.32 60.3422 40.4667 60.3422 38.76V23.64C60.3422 21.96 61.1555 21.12 62.7822 21.12C64.4089 21.12 65.2222 21.96 65.2222 23.64V24.48C65.8889 23.36 66.7822 22.5067 67.9022 21.92C69.0489 21.3333 70.3289 21.04 71.7422 21.04C76.3555 21.04 78.6622 23.72 78.6622 29.08V38.76C78.6622 40.4667 77.8354 41.32 76.1822 41.32C74.5022 41.32 73.6622 40.4667 73.6622 38.76V29.32C73.6622 27.8 73.3689 26.6933 72.7822 26C72.2222 25.3067 71.3421 24.96 70.1422 24.96C68.6755 24.96 67.5022 25.4267 66.6222 26.36C65.7689 27.2667 65.3422 28.48 65.3422 30V38.76C65.3422 40.4667 64.5022 41.32 62.8222 41.32ZM92.7006 41.4C87.5273 41.4 84.9406 38.84 84.9406 33.72V25.2H82.8606C81.5273 25.2 80.8606 24.5733 80.8606 23.32C80.8606 22.0667 81.5273 21.44 82.8606 21.44H84.9406V17.8C84.9406 16.12 85.7806 15.28 87.4606 15.28C89.114 15.28 89.9406 16.12 89.9406 17.8V21.44H94.1806C95.514 21.44 96.1806 22.0667 96.1806 23.32C96.1806 24.5733 95.514 25.2 94.1806 25.2H89.9406V33.44C89.9406 34.72 90.2206 35.68 90.7806 36.32C91.3406 36.96 92.2473 37.28 93.5006 37.28C93.954 37.28 94.354 37.24 94.7006 37.16C95.0473 37.08 95.354 37.0267 95.6206 37C95.9406 36.9733 96.2073 37.08 96.4206 37.32C96.634 37.5333 96.7406 37.9867 96.7406 38.68C96.7406 39.2133 96.6473 39.6933 96.4606 40.12C96.3006 40.52 95.994 40.8 95.5406 40.96C95.194 41.0667 94.7406 41.16 94.1806 41.24C93.6206 41.3467 93.1273 41.4 92.7006 41.4Z" fill="#0B0B0B"/>
<path id="Vector_3" d="M106.252 41.4C105.106 41.4 103.892 41.28 102.612 41.04C101.332 40.8 100.186 40.3867 99.172 39.8C98.612 39.48 98.266 39.0933 98.132 38.64C97.999 38.16 98.012 37.72 98.172 37.32C98.359 36.8933 98.652 36.5867 99.052 36.4C99.479 36.2133 99.972 36.2533 100.532 36.52C101.599 37.0267 102.599 37.3867 103.532 37.6C104.466 37.7867 105.386 37.88 106.292 37.88C107.572 37.88 108.519 37.6667 109.132 37.24C109.772 36.7867 110.092 36.2 110.092 35.48C110.092 34.36 109.266 33.64 107.612 33.32L103.612 32.56C100.226 31.92 98.532 30.16 98.532 27.28C98.532 26 98.879 24.8933 99.572 23.96C100.292 23.0267 101.279 22.3067 102.532 21.8C103.786 21.2933 105.226 21.04 106.852 21.04C109.199 21.04 111.292 21.56 113.132 22.6C113.639 22.8667 113.932 23.24 114.012 23.72C114.119 24.1733 114.066 24.6133 113.852 25.04C113.666 25.44 113.359 25.7333 112.932 25.92C112.506 26.08 112.012 26.0267 111.452 25.76C110.626 25.3333 109.826 25.0267 109.052 24.84C108.306 24.6533 107.586 24.56 106.892 24.56C105.586 24.56 104.612 24.7867 103.972 25.24C103.359 25.6933 103.052 26.2933 103.052 27.04C103.052 28.2133 103.812 28.9333 105.332 29.2L109.332 29.96C111.066 30.28 112.372 30.8667 113.252 31.72C114.159 32.5733 114.612 33.72 114.612 35.16C114.612 37.1067 113.852 38.64 112.332 39.76C110.812 40.8533 108.786 41.4 106.252 41.4Z" fill="#00730C"/>
</g>
</svg>
