<svg className="fill-current" width="15" height="16" viewBox="0 0 15 16" fill="none" xmlns="http://www.w3.org/2000/svg">
<g id="Mobile Blog Detail / Icon / calendar 1" clip-path="url(#clip0_673_29305)">
<g id="Group">
<g id="Group_2">
<path id="Vector" d="M13.2422 1.42188H12.5391V0.25H11.3672V1.42188H3.63281V0.25H2.46094V1.42188H1.75781C0.788555 1.42188 0 2.21043 0 3.17969V13.4922C0 14.4614 0.788555 15.25 1.75781 15.25H13.2422C14.2114 15.25 15 14.4614 15 13.4922V3.17969C15 2.21043 14.2114 1.42188 13.2422 1.42188ZM13.8281 13.4922C13.8281 13.8153 13.5653 14.0781 13.2422 14.0781H1.75781C1.43473 14.0781 1.17188 13.8153 1.17188 13.4922V5.75781H13.8281V13.4922ZM13.8281 4.58594H1.17188V3.17969C1.17188 2.8566 1.43473 2.59375 1.75781 2.59375H2.46094V3.76562H3.63281V2.59375H11.3672V3.76562H12.5391V2.59375H13.2422C13.5653 2.59375 13.8281 2.8566 13.8281 3.17969V4.58594Z" fill="currentColor"/>
</g>
</g>
<g id="Group_3">
<g id="Group_4">
<path id="Vector_2" d="M3.39844 6.98828H2.22656V8.16016H3.39844V6.98828Z" fill="currentColor"/>
</g>
</g>
<g id="Group_5">
<g id="Group_6">
<path id="Vector_3" d="M5.74219 6.98828H4.57031V8.16016H5.74219V6.98828Z" fill="currentColor"/>
</g>
</g>
<g id="Group_7">
<g id="Group_8">
<path id="Vector_4" d="M8.08594 6.98828H6.91406V8.16016H8.08594V6.98828Z" fill="currentColor"/>
</g>
</g>
<g id="Group_9">
<g id="Group_10">
<path id="Vector_5" d="M10.4297 6.98828H9.25781V8.16016H10.4297V6.98828Z" fill="currentColor"/>
</g>
</g>
<g id="Group_11">
<g id="Group_12">
<path id="Vector_6" d="M12.7734 6.98828H11.6016V8.16016H12.7734V6.98828Z" fill="currentColor"/>
</g>
</g>
<g id="Group_13">
<g id="Group_14">
<path id="Vector_7" d="M3.39844 9.33203H2.22656V10.5039H3.39844V9.33203Z" fill="currentColor"/>
</g>
</g>
<g id="Group_15">
<g id="Group_16">
<path id="Vector_8" d="M5.74219 9.33203H4.57031V10.5039H5.74219V9.33203Z" fill="currentColor"/>
</g>
</g>
<g id="Group_17">
<g id="Group_18">
<path id="Vector_9" d="M8.08594 9.33203H6.91406V10.5039H8.08594V9.33203Z" fill="currentColor"/>
</g>
</g>
<g id="Group_19">
<g id="Group_20">
<path id="Vector_10" d="M10.4297 9.33203H9.25781V10.5039H10.4297V9.33203Z" fill="currentColor"/>
</g>
</g>
<g id="Group_21">
<g id="Group_22">
<path id="Vector_11" d="M3.39844 11.6758H2.22656V12.8477H3.39844V11.6758Z" fill="currentColor"/>
</g>
</g>
<g id="Group_23">
<g id="Group_24">
<path id="Vector_12" d="M5.74219 11.6758H4.57031V12.8477H5.74219V11.6758Z" fill="currentColor"/>
</g>
</g>
<g id="Group_25">
<g id="Group_26">
<path id="Vector_13" d="M8.08594 11.6758H6.91406V12.8477H8.08594V11.6758Z" fill="currentColor"/>
</g>
</g>
<g id="Group_27">
<g id="Group_28">
<path id="Vector_14" d="M10.4297 11.6758H9.25781V12.8477H10.4297V11.6758Z" fill="currentColor"/>
</g>
</g>
<g id="Group_29">
<g id="Group_30">
<path id="Vector_15" d="M12.7734 9.33203H11.6016V10.5039H12.7734V9.33203Z" fill="currentColor"/>
</g>
</g>
</g>
<defs>
<clipPath id="clip0_673_29305">
<rect width="15" height="15" fill="white" transform="translate(0 0.25)"/>
</clipPath>
</defs>
</svg>
