<svg width="15" height="15" viewBox="0 0 15 15" fill="none" xmlns="http://www.w3.org/2000/svg">
<g id="vaadin:comments-o" clip-path="url(#clip0_1104_18354)">
<path id="Vector" d="M13.3125 13.125C13.875 12.6562 15 11.625 15 10.125C15 8.8125 13.875 7.6875 12.375 7.03125C12.8438 6.46875 13.125 5.625 13.125 4.78125C13.125 2.15625 10.4062 0 6.9375 0C3.65625 0 0 1.96875 0 4.78125C0 6.75 1.5 8.15625 2.15625 8.71875C2.0625 9.84375 1.59375 10.3125 1.59375 10.3125L0.46875 11.25H1.875C3 11.25 3.9375 10.9688 4.6875 10.5938C4.96875 12.375 7.03125 13.7812 9.65625 13.7812H10.125C10.6875 14.25 11.8125 15 13.4062 15H14.7188L13.6875 14.1562C13.6875 14.1562 13.4062 13.875 13.3125 13.125ZM9.65625 12.8438C7.5 12.8438 5.625 11.625 5.625 10.2188V10.0312C5.8125 9.84375 6 9.75 6.09375 9.5625H6.75C8.71875 9.5625 10.5 8.90625 11.625 7.78125C13.0312 8.25 14.0625 9.1875 14.0625 10.125C14.0625 11.0625 13.2188 12 12.4688 12.4688L12.1875 12.6562V12.9375C12.1875 13.4062 12.375 13.6875 12.4688 13.9688C11.5312 13.7812 10.875 13.3125 10.6875 13.0312L10.5938 12.8438H9.65625ZM6.9375 0.9375C9.84375 0.9375 12.1875 2.71875 12.1875 4.78125C12.1875 6.84375 9.75 8.625 6.75 8.625H5.71875L5.625 8.8125C5.34375 9.1875 4.21875 9.9375 2.71875 10.2188C2.8125 9.84375 2.8125 9.28125 2.8125 8.53125V8.25C1.875 7.5 0.84375 6.1875 0.84375 4.875C0.84375 2.8125 3.84375 0.9375 6.9375 0.9375Z" fill="#676767"/>
</g>
<defs>
<clipPath id="clip0_1104_18354">
<rect width="15" height="15" fill="white"/>
</clipPath>
</defs>
</svg>
