<svg width="196" height="330" viewBox="0 0 196 330" fill="none" xmlns="http://www.w3.org/2000/svg">
<g opacity="0.5">
<path opacity="0.5" d="M113.031 79.7375C113.031 79.7375 113.03 79.8916 113.026 80.3539C113.024 80.6621 113.018 81.2785 112.859 81.8939C112.857 82.2021 112.7 82.5094 112.697 82.8176C112.695 83.1258 112.537 83.5871 112.38 83.8943C112.224 84.2016 112.066 84.6629 111.908 85.1243C111.752 85.4315 111.594 85.8929 111.283 86.1991C111.126 86.5064 110.969 86.9677 110.658 87.274C110.347 87.5803 110.19 88.0416 110.033 88.3489C109.876 88.6561 109.566 88.9624 109.409 89.2697C109.099 89.576 108.942 89.8832 108.787 90.0363C108.009 90.9562 107.387 91.7229 107.387 91.7229C107.387 91.7229 108.008 91.1103 108.94 90.1914C109.25 89.8851 109.405 89.732 109.716 89.4257C110.027 89.1194 110.183 88.8121 110.494 88.5058C110.804 88.1995 110.961 87.8923 111.273 87.4319C111.583 87.1256 111.741 86.6643 112.052 86.358C112.21 85.8967 112.52 85.5904 112.677 85.2831C112.835 84.8218 112.991 84.5145 113.149 84.0532C113.306 83.746 113.464 83.2846 113.62 82.9774C113.777 82.6701 113.781 82.2078 113.937 81.9006C114.096 81.2852 114.102 80.6688 114.105 80.2065C114.109 79.7442 114.111 79.5901 114.111 79.5901C114.113 79.2819 113.806 79.1259 113.498 79.124C113.19 79.1221 113.034 79.4293 113.031 79.7375Z" fill="#547D1E"/>
<g opacity="0.5">
<g opacity="0.5">
<path opacity="0.5" d="M61.3228 130.426C58.3956 130.562 55.4697 130.544 52.5425 130.68C51.3105 130.673 50.0786 130.665 48.6926 130.657C48.2306 130.654 47.6146 130.65 47.1527 130.647C46.6907 130.644 46.076 130.486 45.7667 130.639C46.384 130.488 47.0064 129.722 47.471 129.416C48.2461 128.805 48.8673 128.192 49.4885 127.579C51.04 126.202 52.4376 124.824 53.8365 123.291C56.3225 120.687 73.1492 97.521 76.8762 93.8455C79.6713 91.0889 82.9259 88.6433 86.6335 87.2792C90.9596 85.6108 95.7373 85.178 100.355 85.5147C103.586 85.8429 107.278 86.328 110.346 87.7339C110.807 87.8908 110.958 88.1999 111.261 88.8182C111.868 89.9007 112.32 91.1364 112.617 92.371C115.169 100.246 114.173 108.87 108.881 115.464C102.811 123.131 93.2296 127.079 83.9744 128.871C80.2746 129.311 63.9421 130.288 61.3228 130.426Z" fill="url(#paint0_linear_464_6786)"/>
<path opacity="0.5" d="M72.8371 97.982C75.6375 94.609 78.7446 91.392 82.4598 89.1033C89.7377 84.371 98.8248 84.273 107.124 86.3276C108.353 86.6434 109.428 86.9583 110.657 87.4282C110.963 87.5842 110.963 87.5842 110.653 87.8905C109.564 89.1166 108.321 90.4958 107.078 91.721C102.572 96.4704 97.6058 101.063 92.489 105.192C82.1015 113.45 70.8017 120.315 58.5908 125.633C54.4174 127.456 50.2466 128.972 45.9218 130.486C49.7949 127.736 68.4813 103.195 72.8371 97.982Z" fill="url(#paint1_linear_464_6786)"/>
</g>
<g opacity="0.5">
<g opacity="0.5">
<path opacity="0.5" d="M62.0575 116.254C64.3532 117.963 67.2752 118.443 70.0472 118.461C72.9744 118.325 75.4486 117.107 77.9255 115.581C75.2959 116.952 72.669 118.014 69.7405 118.305C67.1238 118.134 64.3558 117.655 62.0575 116.254Z" fill="url(#paint2_linear_464_6786)"/>
<path opacity="0.5" d="M55.8382 123.304C58.5933 125.325 62.2956 124.577 65.0818 122.899C62.1429 124.422 58.7486 125.171 55.8382 123.304Z" fill="url(#paint3_linear_464_6786)"/>
<path opacity="0.5" d="M68.2771 109.203C71.3402 111.226 75.3389 111.867 78.8834 111.58C83.1978 111.299 86.9092 109.472 90.4705 107.183C86.7578 109.163 83.0477 110.836 78.886 111.272C75.3415 111.558 71.4967 110.918 68.2771 109.203Z" fill="url(#paint4_linear_464_6786)"/>
<path opacity="0.5" d="M73.7379 100.761C77.5658 103.405 82.4872 104.206 86.9544 104.079C91.8848 103.801 96.3688 101.672 100.549 99.0776C98.5377 100.144 96.5254 101.364 94.363 102.121C91.7373 103.03 89.1142 103.63 86.187 103.766C82.0265 104.049 77.2604 103.095 73.7379 100.761Z" fill="url(#paint5_linear_464_6786)"/>
<path opacity="0.5" d="M79.028 94.3215C83.4706 97.1229 89.0118 97.4653 94.0988 96.8803C99.4939 96.2972 104.446 93.3998 108.785 90.1903C104.295 93.0906 99.6569 95.2194 94.412 96.2658C89.171 96.8499 83.7812 96.8166 79.028 94.3215Z" fill="url(#paint6_linear_464_6786)"/>
</g>
<path opacity="0.5" d="M69.1983 127.856C69.2203 125.236 70.3216 122.469 71.8784 120.475C73.747 118.021 76.0698 116.495 78.7007 114.97C76.0724 116.186 73.5969 117.558 71.8835 119.859C70.3229 122.315 69.0689 124.927 69.1983 127.856Z" fill="url(#paint7_linear_464_6786)"/>
<path opacity="0.5" d="M60.5617 129.343C60.5915 125.799 63.2301 123.35 66.0137 121.98C63.2301 123.35 60.4362 125.952 60.5617 129.343Z" fill="url(#paint8_linear_464_6786)"/>
<path opacity="0.5" d="M77.2192 126.364C77.095 122.819 78.5133 118.975 80.5398 116.06C82.8794 112.53 86.134 110.084 89.8493 107.795C86.1366 109.776 82.7281 112.22 80.3884 115.75C78.3606 118.82 76.7883 122.663 77.2192 126.364Z" fill="url(#paint9_linear_464_6786)"/>
<path opacity="0.5" d="M87.692 126.275C86.8016 122.263 87.305 117.334 89.0313 113.492C90.1312 110.879 91.5366 108.577 93.2486 106.43C94.6501 104.589 96.357 103.059 98.0639 101.528C94.3421 104.587 90.7705 108.109 88.8838 112.721C87.3089 116.872 86.3448 121.643 87.692 126.275Z" fill="url(#paint10_linear_464_6786)"/>
<path opacity="0.5" d="M98.5417 118.02C97.1971 113.08 98.1663 107.693 99.9004 102.926C101.791 97.8525 105.368 93.7137 109.096 89.8841C107.389 91.4146 105.682 92.9451 104.127 94.7848C102.259 97.0848 100.698 99.695 99.5976 102.308C97.8596 107.537 96.7364 112.924 98.5417 118.02Z" fill="url(#paint11_linear_464_6786)"/>
</g>
<path opacity="0.5" d="M45.768 130.485C46.076 130.487 50.8654 128.667 51.4827 128.517C54.2637 127.455 57.0459 126.24 59.8282 125.024C65.856 122.441 71.7337 119.396 77.4587 116.195C83.3389 112.841 89.0678 109.178 94.3386 105.049C99.1448 101.226 110.027 89.1194 111.116 87.7391C111.116 87.7391 111.116 87.7391 110.962 87.7382C107.542 91.5697 103.968 95.4002 100.089 98.7666C95.1254 103.051 90.0086 107.18 84.5877 110.845C73.9026 117.868 62.6092 123.962 50.5574 128.665C49.4756 129.121 48.3937 129.577 47.1579 130.031C47.0052 129.876 46.0773 130.333 45.768 130.485Z" fill="#337204"/>
</g>
<path opacity="0.5" d="M189.017 329.24C187.796 328 186.577 326.451 185.203 324.902C178.492 317.155 169.192 306.002 159.304 291.455C154.283 284.181 149.267 276.291 144.412 267.477C139.558 258.663 134.863 249.234 130.791 239.038C126.718 228.841 123.422 217.88 121.361 206.617L120.917 204.457L120.627 202.298C120.485 200.91 120.189 199.367 120.047 197.979L119.902 196.9L119.757 195.82L119.621 193.662L119.35 189.345L119.387 184.876L119.405 182.719C119.412 181.948 119.418 181.178 119.423 180.562L119.769 176.095L119.941 173.938C119.947 173.168 120.106 172.552 120.267 171.783C120.932 165.931 122.212 160.237 123.492 154.543C124.772 148.849 126.358 143.311 127.945 137.773C131.116 126.851 134.901 116.241 138.684 105.94C142.465 95.7921 146.244 85.9527 149.403 76.5719C152.561 67.191 155.102 58.1145 155.79 49.4889C156.134 45.176 156.015 41.0145 155.277 37.1573C154.54 33.3001 153.184 29.7473 151.36 26.8081C149.537 23.8688 147.402 21.39 145.11 19.2184C142.817 17.2008 140.521 15.4915 138.529 14.2464C134.239 11.6001 130.558 9.88222 128.102 8.94242C126.875 8.31843 125.953 8.00453 125.185 7.84568C124.571 7.53368 124.263 7.53178 124.263 7.53178C124.263 7.53178 124.57 7.68778 125.339 7.84663C125.952 8.15863 127.028 8.47348 128.256 8.94338C130.712 9.88317 134.395 11.447 138.839 14.0942C140.984 15.3403 143.28 17.0496 145.573 19.0671C147.866 21.0846 150.155 23.5645 151.978 26.6578C153.955 29.598 155.31 33.3049 156.201 37.163C157.093 41.0211 157.211 45.3368 156.867 49.6496C156.331 58.4303 153.789 67.6609 150.937 77.1978C147.931 86.7337 144.307 96.574 140.678 106.877C137.05 117.179 133.572 127.791 130.555 138.714C128.968 144.252 127.69 149.792 126.411 155.332C125.287 160.872 124.161 166.567 123.497 172.265C123.337 173.035 123.331 173.651 123.171 174.421L122.999 176.577L122.809 180.891C122.802 181.661 122.797 182.278 122.79 183.048L122.772 185.205L122.89 189.521L123.316 193.839L123.452 195.997L123.597 197.077L123.742 198.156C123.884 199.544 124.18 200.933 124.323 202.321L124.613 204.48L125.058 206.486C127.275 217.595 130.729 228.096 134.804 237.984C138.879 247.871 143.729 257.148 148.586 265.653C153.597 274.16 158.614 281.896 163.636 289.016C173.682 303.102 182.985 313.947 189.699 321.385C190.767 322.624 191.836 323.71 192.752 324.64L192.709 329.725L189.013 329.702L189.017 329.24Z" fill="#347E08"/>
<path opacity="0.5" d="M133.287 125.169C133.287 125.169 133.903 125.173 134.066 124.096C133.919 123.17 134.238 121.939 133.943 120.396C133.648 118.853 133.355 117.002 132.911 114.842C132.467 112.682 131.872 110.213 130.969 107.741C130.517 106.506 130.067 105.116 129.617 103.726C129.012 102.336 128.562 100.946 127.957 99.5551C126.749 96.7738 125.233 93.8365 123.41 90.8972C121.587 87.958 119.608 85.1718 117.166 82.537C114.724 79.9021 112.281 77.4214 109.373 75.2459C106.619 73.0715 103.555 71.2033 100.489 69.4892C98.9557 68.7092 97.4222 67.9292 95.8874 67.3033C94.3526 66.6774 92.8178 66.0515 91.2818 65.5797C89.7457 65.1079 88.2096 64.6361 86.6735 64.1643C85.1362 63.8466 83.5988 63.5289 82.2154 63.2122C80.8321 62.8954 79.2934 62.7318 77.9087 62.5692C77.294 62.4113 76.5241 62.4065 75.9094 62.2486C75.2934 62.2448 74.5247 62.086 73.9087 62.0822C72.6781 61.9205 71.4461 61.9129 70.2154 61.7512C68.9834 61.7435 67.9055 61.7369 66.8275 61.7302C65.7495 61.7236 64.8256 61.7179 63.9016 61.7122C62.9776 61.7065 62.2064 61.8558 61.4364 61.8511C58.5092 61.9871 56.6599 62.1298 56.6599 62.1298C56.6599 62.1298 58.3539 62.1402 61.4351 62.0052C62.2051 62.0099 62.9751 62.0147 63.899 62.0204C64.823 62.0261 65.7457 62.1859 66.8236 62.1925C67.9016 62.1992 68.9796 62.2058 70.2102 62.3675C71.4409 62.5292 72.6716 62.691 73.9023 62.8527C74.5182 62.8565 75.1329 63.0144 75.9029 63.0191C76.5176 63.177 77.2863 63.3359 77.9023 63.3397C79.2856 63.6564 80.6703 63.8191 82.0537 64.1358C83.437 64.4526 84.9731 64.9244 86.3565 65.2411C87.8926 65.7129 89.2747 66.1838 90.8094 66.8097C92.3442 67.4356 93.725 68.0605 95.2598 68.6864C96.7933 69.4664 98.1728 70.2454 99.7062 71.0254C102.618 72.7386 105.528 74.6058 107.973 76.9325C110.573 79.106 113.016 81.5867 115.15 84.2197C117.284 86.8526 119.108 89.6378 120.779 92.422C122.296 95.2053 123.813 97.9885 124.867 100.769C125.472 102.16 125.922 103.549 126.374 104.785C126.824 106.175 127.276 107.41 127.573 108.645C128.322 111.115 128.765 113.43 129.21 115.436C129.501 117.441 129.794 119.292 129.935 120.834C130.076 122.376 130.221 123.455 130.214 124.226C130.208 124.996 130.635 129.16 130.635 129.16C130.625 130.393 131.874 128.397 132.343 127.475C133.121 126.555 133.43 126.403 133.287 125.169Z" fill="#347E08"/>
<g opacity="0.5">
<g opacity="0.5">
<path opacity="0.5" d="M13.7055 60.6319C11.5651 58.7694 9.27197 56.7519 7.13155 54.8894C6.21534 53.9591 5.29784 53.1829 4.38162 52.2526C4.07622 51.9425 3.6181 51.4774 3.3127 51.1673C3.0073 50.8572 2.70448 50.2389 2.39778 50.0829C3.01118 50.3949 3.78245 50.2456 4.39843 50.2494C5.32241 50.2551 6.24637 50.2608 7.17035 50.2665C9.17229 50.2789 11.3282 50.2922 13.3328 49.9963C17.0312 49.711 44.9523 44.1815 50.0367 43.9047C54.0419 43.7753 58.0432 44.1082 61.7261 45.672C66.0238 47.3937 69.8504 50.1912 72.9006 53.7544C75.0358 56.2333 77.4752 59.1764 78.6826 62.1118C78.8327 62.5751 78.8301 62.8832 78.5169 63.4977C78.1986 64.7286 77.7263 65.9585 77.1012 67.0334C73.65 74.5632 67.1343 80.2249 58.8069 81.5604C49.2463 83.0424 39.4203 79.4373 31.4539 74.4568C28.3895 72.5886 15.6932 62.3393 13.7055 60.6319Z" fill="url(#paint12_linear_464_6786)"/>
<path opacity="0.5" d="M44.1783 44.6387C48.4954 44.049 52.9638 43.7683 57.2692 44.5655C65.8801 46.1597 72.6054 52.2113 77.1671 59.1742C77.7753 60.1025 78.5362 61.186 78.9892 62.2675C79.1406 62.5767 79.1406 62.5767 78.6786 62.5738C76.9834 62.7174 75.2881 62.8611 73.4389 63.0038C66.8132 63.4252 60.1914 63.3843 53.5735 62.8811C40.3363 62.0288 27.4227 59.3293 14.9853 54.9376C10.6863 53.37 6.54136 51.8034 2.399 49.9285C7.1664 50.7285 37.3948 45.5215 44.1783 44.6387Z" fill="url(#paint13_linear_464_6786)"/>
</g>
<g opacity="0.5">
<g opacity="0.5">
<path opacity="0.5" d="M23.9531 50.6782C24.5458 53.4558 26.3744 55.7786 28.3608 57.6402C30.6552 59.5036 33.2667 60.2902 36.0347 60.7696C33.1153 59.9811 30.5051 59.0403 28.2107 57.1769C26.2217 55.6236 24.5471 53.3017 23.9531 50.6782Z" fill="url(#paint14_linear_464_6786)"/>
<path opacity="0.5" d="M14.5518 51.5448C15.2933 54.9397 18.5117 56.8088 21.5864 57.4442C18.3577 56.8079 15.4473 54.9406 14.5518 51.5448Z" fill="url(#paint15_linear_464_6786)"/>
<path opacity="0.5" d="M33.3547 49.8115C34.249 53.3615 36.6857 56.6127 39.5936 58.7881C42.9595 61.4287 46.953 62.6862 51.1044 63.4823C46.9543 62.5321 43.1161 61.1214 39.7488 58.635C36.8423 56.3055 34.2503 53.2074 33.3547 49.8115Z" fill="url(#paint16_linear_464_6786)"/>
<path opacity="0.5" d="M42.9246 47.2509C43.8097 51.8795 46.8573 55.7509 50.3746 58.7006C54.1974 61.9604 58.9596 63.3768 63.727 64.1767C61.4222 63.5461 59.2702 63.0705 57.122 62.1326C54.5131 61.0377 52.2148 59.6366 50.0731 57.9282C46.8612 55.2886 43.9689 51.264 42.9246 47.2509Z" fill="url(#paint17_linear_464_6786)"/>
<path opacity="0.5" d="M51.2507 46.0695C52.594 51.1632 56.4103 55.1935 60.5436 58.147C64.9823 61.4106 70.3631 62.5226 75.7478 63.1722C70.5197 62.2153 65.6035 60.798 61.1622 57.8426C56.8761 54.7341 52.9033 51.011 51.2507 46.0695Z" fill="url(#paint18_linear_464_6786)"/>
</g>
<path opacity="0.5" d="M21.2229 64.0684C23.0864 62.2306 25.7159 60.8599 28.1837 60.4128C31.1148 59.8145 33.8829 60.2939 36.8023 61.0825C34.0382 60.1408 31.2701 59.6614 28.4943 60.1065C25.8712 60.7068 23.089 61.9224 21.2229 64.0684Z" fill="url(#paint19_linear_464_6786)"/>
<path opacity="0.5" d="M13.8699 59.3998C16.3545 56.9495 19.7437 56.8163 22.9699 57.7609C19.899 56.6632 16.2018 56.7944 13.8699 59.3998Z" fill="url(#paint20_linear_464_6786)"/>
<path opacity="0.5" d="M28.1165 68.426C30.4498 65.6665 34.1599 63.9942 37.5555 63.0906C41.7212 62.1917 45.7225 62.5246 49.8739 63.3207C45.7238 62.3705 41.725 61.7294 37.5581 62.7824C34.0085 63.6851 30.2971 65.5114 28.1165 68.426Z" fill="url(#paint21_linear_464_6786)"/>
<path opacity="0.5" d="M35.9121 75.4087C37.9451 71.7227 41.6668 68.6636 45.5322 66.8382C48.1605 65.6216 50.6309 64.8664 53.4067 64.4212C55.7205 63.9731 58.0292 64.1415 60.3391 64.1558C55.5678 63.8181 50.4847 63.9408 45.9994 66.2247C41.9787 68.2032 37.949 71.2604 35.9121 75.4087Z" fill="url(#paint22_linear_464_6786)"/>
<path opacity="0.5" d="M49.2993 76.7242C51.648 72.1156 55.987 68.9062 60.4723 66.6223C65.2669 64.1862 70.6619 63.6031 76.0543 63.3282C73.7444 63.3139 71.4344 63.2997 69.1219 63.5936C66.1934 63.8837 63.2598 64.7902 60.6315 66.0068C55.9896 68.598 51.6506 71.8074 49.2993 76.7242Z" fill="url(#paint23_linear_464_6786)"/>
</g>
<path opacity="0.5" d="M2.39771 50.0828C2.7044 50.2388 7.46145 52.2715 7.92214 52.4284C10.685 53.5242 13.4479 54.62 16.366 55.5627C22.5077 57.7581 28.8073 59.4921 35.2635 60.9189C41.8737 62.3467 48.4851 63.6203 55.2571 64.1245C61.413 64.6248 67.8808 64.6647 74.0497 63.6241C75.7462 63.3264 77.5968 63.0296 79.2933 62.7318C79.2933 62.7318 79.2933 62.7318 79.2946 62.5777C74.2089 63.0087 68.9678 63.5927 63.8873 63.4072C57.4208 63.2132 50.8015 62.8641 44.3428 61.7455C31.732 59.6643 19.2855 56.3512 7.31134 51.8083C6.23725 51.3393 5.16316 50.8704 3.93378 50.5546C3.62579 50.5527 2.7044 50.2388 2.39771 50.0828Z" fill="#429005"/>
</g>
<path opacity="0.5" d="M116.546 82.9955C116.546 82.9955 116.547 82.8414 116.55 82.5332C116.553 82.225 116.555 81.9168 116.559 81.4545C116.563 80.9922 116.413 80.529 116.418 79.9126C116.268 79.4494 116.273 78.833 115.97 78.2147C115.819 77.9056 115.82 77.7515 115.669 77.4423C115.517 77.1332 115.365 76.9781 115.367 76.6699C115.214 76.5149 115.063 76.2057 115.064 76.0516C114.912 75.8966 114.76 75.5875 114.608 75.4324C114.151 74.8132 113.693 74.348 113.693 74.348C113.693 74.348 113.997 74.8122 114.452 75.5856C114.605 75.7406 114.758 75.8956 114.755 76.2038C114.908 76.3589 114.905 76.6671 115.058 76.8221C115.209 77.1313 115.208 77.2854 115.359 77.5945C115.357 77.9027 115.51 78.0578 115.507 78.3659C115.657 78.8292 115.652 79.4456 115.648 79.9079C115.644 80.3702 115.64 80.8325 115.636 81.2947C115.633 81.757 115.63 82.0652 115.475 82.2184C115.473 82.3725 115.472 82.5266 115.472 82.5266C115.469 82.8348 115.621 83.1439 115.775 83.1449C116.234 83.4559 116.544 83.3037 116.546 82.9955Z" fill="#347E08"/>
<g opacity="0.5">
<g opacity="0.5">
<path opacity="0.5" d="M124.38 12.0015C126.553 10.0115 128.726 8.02158 130.898 6.03163C131.829 5.26685 132.761 4.34797 133.845 3.58415C134.31 3.27881 134.62 2.97251 135.085 2.66717C135.395 2.36088 136.013 2.21059 136.17 1.74925C135.859 2.20964 135.851 3.13422 135.692 3.74965C135.53 4.67328 135.368 5.59691 135.36 6.52149C135.19 8.5238 135.017 10.6802 134.847 12.6825C134.662 16.3799 137.196 44.7508 136.845 49.8341C136.503 53.8387 135.701 57.6864 133.823 61.2192C131.632 65.3665 128.37 68.7367 124.651 71.4876C122.016 73.4747 118.765 75.458 115.678 76.3635C115.215 76.5148 114.908 76.3588 114.293 76.2009C113.065 75.731 111.992 75.108 110.919 74.4849C103.871 70.2806 99.0022 63.1617 98.6114 54.6835C98.2309 44.9725 102.93 35.6012 108.69 28.2397C110.871 25.1711 122.518 13.6851 124.38 12.0015Z" fill="url(#paint24_linear_464_6786)"/>
<path opacity="0.5" d="M136.895 43.8246C137.013 48.1402 136.668 52.6071 135.555 56.7611C133.021 65.0671 126.347 71.1901 118.769 74.9959C117.686 75.6056 116.604 76.0613 115.368 76.516C114.905 76.6672 115.059 76.6681 115.063 76.2059C115.077 74.5108 115.091 72.8157 115.261 70.9675C115.625 64.3433 116.296 57.7209 117.428 51.2555C119.847 38.3256 123.958 25.5603 129.603 13.575C131.486 9.42578 133.674 5.58667 136.018 1.59441C134.9 6.36476 136.798 37.0433 136.895 43.8246Z" fill="url(#paint25_linear_464_6786)"/>
</g>
<g opacity="0.5">
<g opacity="0.5">
<path opacity="0.5" d="M133.219 23.1517C130.29 23.4418 127.813 24.9675 125.796 26.8043C123.777 28.7952 122.523 31.4073 121.73 34.1763C122.831 31.4092 123.93 28.9503 126.258 26.8072C127.967 24.9685 130.444 23.4427 133.219 23.1517Z" fill="url(#paint26_linear_464_6786)"/>
<path opacity="0.5" d="M133.298 13.7518C129.753 14.0381 127.571 17.1068 126.621 20.183C127.727 16.9536 129.906 14.1932 133.298 13.7518Z" fill="url(#paint27_linear_464_6786)"/>
<path opacity="0.5" d="M132.986 32.5505C129.286 32.99 125.88 35.1264 123.394 37.7309C120.443 40.7947 118.716 44.6367 117.451 48.6356C118.87 44.6377 120.595 40.9498 123.547 37.8859C126.186 35.4365 129.439 33.145 132.986 32.5505Z" fill="url(#paint28_linear_464_6786)"/>
<path opacity="0.5" d="M134.444 42.2682C129.82 42.702 125.641 45.2959 122.225 48.5111C118.654 52.0334 116.768 56.4908 115.342 61.2593C116.13 59.1067 116.918 56.954 118.015 54.8033C119.421 52.3464 120.979 50.1985 122.998 48.2076C126.101 45.4529 130.28 43.013 134.444 42.2682Z" fill="url(#paint29_linear_464_6786)"/>
<path opacity="0.5" d="M134.681 50.7455C129.438 51.6378 125.099 54.8472 121.678 58.6787C117.949 62.6624 116.21 68.0453 114.934 73.277C116.516 68.2013 118.404 63.4357 121.827 59.296C125.401 55.4655 129.589 51.9469 134.681 50.7455Z" fill="url(#paint30_linear_464_6786)"/>
</g>
<path opacity="0.5" d="M120.163 19.0643C121.84 21.078 122.741 23.8575 123.028 26.3249C123.31 29.4088 122.518 32.0237 121.417 34.7908C122.671 32.1787 123.463 29.5638 123.333 26.635C122.893 24.0125 122.148 21.08 120.163 19.0643Z" fill="url(#paint31_linear_464_6786)"/>
<path opacity="0.5" d="M125.611 12.1633C127.899 14.7972 127.561 18.3396 126.303 21.4139C127.56 18.4937 127.899 14.7972 125.611 12.1633Z" fill="url(#paint32_linear_464_6786)"/>
<path opacity="0.5" d="M115.028 25.351C117.47 27.9858 118.824 31.8468 119.257 35.2398C119.684 39.4032 118.881 43.405 117.615 47.4039C119.035 43.406 119.992 39.4051 119.566 35.0876C119.133 31.6946 117.778 27.9877 115.028 25.351Z" fill="url(#paint33_linear_464_6786)"/>
<path opacity="0.5" d="M107.269 32.392C110.636 34.8784 113.374 38.9021 114.728 42.763C115.63 45.3884 116.07 48.0109 116.199 50.9397C116.334 53.2521 116.007 55.5616 115.833 57.8721C116.643 53.0999 117.147 48.1716 115.339 43.3832C113.68 39.2122 111.252 34.8822 107.269 32.392Z" fill="url(#paint34_linear_464_6786)"/>
<path opacity="0.5" d="M104.385 45.6271C108.674 48.4274 111.406 53.2216 113.215 57.8559C115.174 62.9534 115.129 68.3468 114.776 73.7383C115.103 71.4288 115.431 69.1192 115.296 66.8068C115.321 63.879 114.729 60.9473 113.83 58.0138C111.868 53.2244 109.136 48.4303 104.385 45.6271Z" fill="url(#paint35_linear_464_6786)"/>
</g>
<path opacity="0.5" d="M136.17 1.74937C136.015 1.90251 133.512 6.5102 133.201 6.97059C131.793 9.58168 130.383 12.3469 129.129 14.9589C126.307 20.9516 123.793 26.9461 121.739 33.0976C119.53 39.4023 117.627 46.017 116.339 52.6356C115.209 58.7928 114.386 65.106 114.641 71.4259C114.78 73.276 114.92 74.972 114.904 76.8212C114.904 76.8212 114.904 76.8212 115.058 76.8221C115.102 71.5828 115.299 66.4986 115.957 61.4172C116.936 54.9509 118.068 48.4854 119.815 42.1779C123.306 29.8711 127.873 17.8791 133.822 6.35801C134.293 5.28218 134.918 4.20731 135.543 3.13243C135.545 2.82424 136.014 2.05661 136.17 1.74937Z" fill="#005D00"/>
</g>
<g opacity="0.5">
<g opacity="0.5">
<path opacity="0.5" d="M84.1265 18.9959C84.6131 16.0709 85.2524 13.301 85.8929 10.3769C86.2112 9.14606 86.5296 7.91519 86.8479 6.68432C87.0058 6.22298 87.165 5.60754 87.3228 5.1462C87.4807 4.68486 87.7926 4.22447 87.6425 3.76123C87.6373 4.37762 88.2468 5.15191 88.5509 5.6161C89.0064 6.38944 89.4607 7.31687 89.9162 8.09021C90.9786 9.94602 92.0424 11.6477 93.1061 13.3495C95.0822 16.4438 114 37.6729 116.735 42.1589C118.862 45.5623 120.527 49.117 121.109 53.1273C121.84 57.755 121.185 62.3741 119.762 66.8343C118.657 70.0637 117.396 73.4462 115.371 76.2076C115.059 76.668 114.751 76.6661 114.134 76.8164C112.899 77.117 111.666 77.2635 110.433 77.41C102.265 78.13 93.9722 75.305 88.7907 68.8006C82.6929 61.3659 80.9316 51.03 81.1658 41.4769C81.0441 37.6236 83.6426 21.6127 84.1265 18.9959Z" fill="url(#paint36_linear_464_6786)"/>
<path opacity="0.5" d="M113.233 37.3599C115.822 40.7662 118.255 44.4797 119.76 48.6499C122.772 56.836 120.85 65.6081 116.936 73.2892C116.465 74.365 115.839 75.4399 115.06 76.5138C114.75 76.8201 114.904 76.8211 114.6 76.3569C113.533 74.9633 112.621 73.5708 111.71 72.0241C108.061 66.4538 104.721 60.7313 101.844 54.8575C96.0916 42.956 91.8858 30.2934 89.3765 17.3331C88.49 12.8586 87.9115 8.38597 87.4871 3.91431C89.2975 8.39452 109.12 31.9409 113.233 37.3599Z" fill="url(#paint37_linear_464_6786)"/>
</g>
<g opacity="0.5">
<g opacity="0.5">
<path opacity="0.5" d="M97.801 22.7788C95.6295 24.6146 94.5283 27.3817 93.889 30.1516C93.4025 33.0766 93.9965 35.7001 95.0512 38.4805C94.3045 35.702 93.7118 32.9244 94.3536 29.8463C94.8363 27.3836 95.9375 24.6165 97.801 22.7788Z" fill="url(#paint38_linear_464_6786)"/>
<path opacity="0.5" d="M92.3205 15.1939C89.6832 17.4892 89.6521 21.1875 90.7042 24.2761C89.8061 21.1884 89.9899 17.6452 92.3205 15.1939Z" fill="url(#paint39_linear_464_6786)"/>
<path opacity="0.5" d="M103.28 30.5179C100.642 32.9673 99.0694 36.8102 98.5777 40.3516C97.9255 44.6625 98.8159 48.6747 100.322 52.6907C99.1239 48.6766 98.3875 44.6653 98.8844 40.5075C99.3774 36.8121 100.794 33.1223 103.28 30.5179Z" fill="url(#paint40_linear_464_6786)"/>
<path opacity="0.5" d="M110.306 37.4959C106.738 40.556 105.005 45.1684 104.198 49.6325C103.386 54.5588 104.424 59.3425 106.08 63.9759C105.482 61.8147 104.731 59.4985 104.442 57.1851C104.158 54.4095 104.181 51.6357 104.666 48.8649C105.316 44.8621 107.355 40.4057 110.306 37.4959Z" fill="url(#paint41_linear_464_6786)"/>
<path opacity="0.5" d="M115.486 44.1545C111.758 47.9841 110.174 53.2138 109.669 58.2962C109.007 63.8399 110.811 69.0906 112.925 74.035C111.12 68.9384 109.928 64.1538 110.127 58.7613C110.789 53.3717 112.065 48.1401 115.486 44.1545Z" fill="url(#paint42_linear_464_6786)"/>
</g>
<path opacity="0.5" d="M84.9807 27.3228C87.5935 27.9553 89.8904 29.5105 91.5676 31.5243C93.5501 33.8481 94.6061 36.4744 95.3528 39.2529C94.7601 36.4753 93.8581 33.85 92.0296 31.5271C90.0444 29.5115 87.7488 27.8022 84.9807 27.3228Z" fill="url(#paint43_linear_464_6786)"/>
<path opacity="0.5" d="M85.3621 18.5413C88.7435 19.3327 90.5656 22.426 91.3097 25.5127C90.7196 22.427 88.7448 19.1786 85.3621 18.5413Z" fill="url(#paint44_linear_464_6786)"/>
<path opacity="0.5" d="M84.6055 35.3339C88.1422 35.9721 91.5107 38.3045 93.9539 40.7853C96.854 43.8853 98.5169 47.594 99.8692 51.6091C98.6709 47.595 97.1633 43.7331 94.1092 40.6321C91.6673 37.9972 88.2975 35.819 84.6055 35.3339Z" fill="url(#paint45_linear_464_6786)"/>
<path opacity="0.5" d="M82.5168 45.6461C86.6747 45.6718 91.2816 47.2413 94.6488 49.7277C96.9458 51.283 98.9322 53.1445 100.608 55.3123C102.133 57.171 103.194 59.1809 104.409 61.1917C102.289 56.8637 99.7061 52.6869 95.5715 49.8875C91.7436 47.2441 87.1393 45.3664 82.5168 45.6461Z" fill="url(#paint46_linear_464_6786)"/>
<path opacity="0.5" d="M87.9571 58.008C93.0416 57.7312 98.1053 59.9199 102.241 62.5652C106.836 65.5216 110.034 69.8563 112.923 74.3432C111.861 72.3332 110.646 70.3224 109.276 68.4647C107.447 66.1418 105.308 64.1252 102.86 62.2608C98.4159 59.6136 93.5061 57.4258 87.9571 58.008Z" fill="url(#paint47_linear_464_6786)"/>
</g>
<path opacity="0.5" d="M87.6411 3.91541C87.6385 4.2236 88.2118 9.3126 88.3607 9.92994C88.7981 12.8606 89.2355 15.7913 89.8269 18.723C91.0046 25.2026 92.6455 31.5311 94.5944 37.8614C96.542 44.3458 98.7989 50.6781 101.828 56.7068C104.554 62.2714 107.587 67.838 111.55 72.7938C112.616 74.1873 113.836 75.5818 114.903 76.9753C114.903 76.9753 114.903 76.9753 115.057 76.9763C112.012 72.7966 109.121 68.6179 106.695 63.9798C103.663 58.2592 100.633 52.3845 98.3745 46.2064C93.8555 34.1583 90.417 21.8087 88.5211 9.1604C88.3775 7.92668 88.2325 6.84705 87.9349 5.61237C87.7848 5.14913 87.6385 4.2236 87.6411 3.91541Z" fill="#429005"/>
</g>
</g>
<defs>
<linearGradient id="paint0_linear_464_6786" x1="61.1248" y1="73.5011" x2="95.562" y2="144.353" gradientUnits="userSpaceOnUse">
<stop stop-color="#C2C2C2"/>
<stop offset="1e-08" stop-color="#C2C2C2"/>
<stop offset="2e-08" stop-color="#C2C2C2"/>
<stop offset="4e-08" stop-color="#C2C2C2"/>
<stop offset="7e-08" stop-color="#C2C2C2"/>
<stop offset="1.5e-07" stop-color="#C2C2C2"/>
<stop offset="2.9e-07" stop-color="#C2C2C2"/>
<stop offset="5.8e-07" stop-color="#C2C2C2"/>
<stop offset="1.17e-06" stop-color="#C2C2C2"/>
<stop offset="2.33e-06" stop-color="#C2C2C2"/>
<stop offset="4.67e-06" stop-color="#C2C2C2"/>
<stop offset="9.33e-06" stop-color="#C2C2C2"/>
<stop offset="1.867e-05" stop-color="#C2C2C2"/>
<stop offset="3.734e-05" stop-color="#C2C2C2"/>
<stop offset="7.467e-05" stop-color="#C2C2C2"/>
<stop offset="0.00014934" stop-color="#C2C2C2"/>
<stop offset="0.00029869" stop-color="#C2C2C2"/>
<stop offset="0.00059737" stop-color="#C2C2C1"/>
<stop offset="0.00119474" stop-color="#C2C2C1"/>
<stop offset="0.00238949" stop-color="#C1C2BF"/>
<stop offset="0.00477897" stop-color="#C1C2BD"/>
<stop offset="0.00955794" stop-color="#BFC2B9"/>
<stop offset="0.172" stop-color="#9FC21B"/>
<stop offset="0.2957" stop-color="#66A700"/>
<stop offset="0.8118" stop-color="#4D8E05"/>
<stop offset="1" stop-color="#367D04"/>
</linearGradient>
<linearGradient id="paint1_linear_464_6786" x1="62.3593" y1="84.9625" x2="79.5022" y2="110.755" gradientUnits="userSpaceOnUse">
<stop stop-color="#C2C2C2"/>
<stop offset="1e-08" stop-color="#C2C2C2"/>
<stop offset="2e-08" stop-color="#C2C2C2"/>
<stop offset="4e-08" stop-color="#C2C2C2"/>
<stop offset="7e-08" stop-color="#C2C2C2"/>
<stop offset="1.5e-07" stop-color="#C2C2C2"/>
<stop offset="2.9e-07" stop-color="#C2C2C2"/>
<stop offset="5.8e-07" stop-color="#C2C2C2"/>
<stop offset="1.17e-06" stop-color="#C2C2C2"/>
<stop offset="2.33e-06" stop-color="#C2C2C2"/>
<stop offset="4.67e-06" stop-color="#C2C2C2"/>
<stop offset="9.33e-06" stop-color="#C2C2C2"/>
<stop offset="1.867e-05" stop-color="#C2C2C2"/>
<stop offset="3.734e-05" stop-color="#C2C2C2"/>
<stop offset="7.467e-05" stop-color="#C2C2C2"/>
<stop offset="0.00014934" stop-color="#C2C2C2"/>
<stop offset="0.00029869" stop-color="#C2C2C2"/>
<stop offset="0.00059737" stop-color="#C2C2C1"/>
<stop offset="0.00119474" stop-color="#C2C2C1"/>
<stop offset="0.00238949" stop-color="#C1C2BF"/>
<stop offset="0.00477897" stop-color="#C1C2BD"/>
<stop offset="0.00955794" stop-color="#BFC2B9"/>
<stop offset="0.172" stop-color="#9FC21B"/>
<stop offset="0.2957" stop-color="#66A700"/>
<stop offset="0.8118" stop-color="#4D8E05"/>
<stop offset="1" stop-color="#367D04"/>
</linearGradient>
<linearGradient id="paint2_linear_464_6786" x1="39.1141" y1="144.575" x2="145.022" y2="46.1727" gradientUnits="userSpaceOnUse">
<stop stop-color="#C2C2C2"/>
<stop offset="1e-08" stop-color="#C2C2C2"/>
<stop offset="2e-08" stop-color="#C2C2C2"/>
<stop offset="4e-08" stop-color="#C2C2C2"/>
<stop offset="7e-08" stop-color="#C2C2C2"/>
<stop offset="1.5e-07" stop-color="#C2C2C2"/>
<stop offset="2.9e-07" stop-color="#C2C2C2"/>
<stop offset="5.8e-07" stop-color="#C2C2C2"/>
<stop offset="1.17e-06" stop-color="#C2C2C2"/>
<stop offset="2.33e-06" stop-color="#C2C2C2"/>
<stop offset="4.67e-06" stop-color="#C2C2C2"/>
<stop offset="9.33e-06" stop-color="#C2C2C2"/>
<stop offset="1.867e-05" stop-color="#C2C2C2"/>
<stop offset="3.734e-05" stop-color="#C2C2C2"/>
<stop offset="7.467e-05" stop-color="#C2C2C2"/>
<stop offset="0.00014934" stop-color="#C2C2C2"/>
<stop offset="0.00029869" stop-color="#C2C2C2"/>
<stop offset="0.00059737" stop-color="#C2C2C1"/>
<stop offset="0.00119474" stop-color="#C2C2C1"/>
<stop offset="0.00238949" stop-color="#C1C2BF"/>
<stop offset="0.00477897" stop-color="#C1C2BD"/>
<stop offset="0.00955794" stop-color="#BFC2B9"/>
<stop offset="0.172" stop-color="#9FC21B"/>
<stop offset="0.2957" stop-color="#66A700"/>
<stop offset="0.8118" stop-color="#4D8E05"/>
<stop offset="1" stop-color="#367D04"/>
</linearGradient>
<linearGradient id="paint3_linear_464_6786" x1="38.2302" y1="143.623" x2="144.137" y2="45.2217" gradientUnits="userSpaceOnUse">
<stop stop-color="#C2C2C2"/>
<stop offset="1e-08" stop-color="#C2C2C2"/>
<stop offset="2e-08" stop-color="#C2C2C2"/>
<stop offset="4e-08" stop-color="#C2C2C2"/>
<stop offset="7e-08" stop-color="#C2C2C2"/>
<stop offset="1.5e-07" stop-color="#C2C2C2"/>
<stop offset="2.9e-07" stop-color="#C2C2C2"/>
<stop offset="5.8e-07" stop-color="#C2C2C2"/>
<stop offset="1.17e-06" stop-color="#C2C2C2"/>
<stop offset="2.33e-06" stop-color="#C2C2C2"/>
<stop offset="4.67e-06" stop-color="#C2C2C2"/>
<stop offset="9.33e-06" stop-color="#C2C2C2"/>
<stop offset="1.867e-05" stop-color="#C2C2C2"/>
<stop offset="3.734e-05" stop-color="#C2C2C2"/>
<stop offset="7.467e-05" stop-color="#C2C2C2"/>
<stop offset="0.00014934" stop-color="#C2C2C2"/>
<stop offset="0.00029869" stop-color="#C2C2C2"/>
<stop offset="0.00059737" stop-color="#C2C2C1"/>
<stop offset="0.00119474" stop-color="#C2C2C1"/>
<stop offset="0.00238949" stop-color="#C1C2BF"/>
<stop offset="0.00477897" stop-color="#C1C2BD"/>
<stop offset="0.00955794" stop-color="#BFC2B9"/>
<stop offset="0.172" stop-color="#9FC21B"/>
<stop offset="0.2957" stop-color="#66A700"/>
<stop offset="0.8118" stop-color="#4D8E05"/>
<stop offset="1" stop-color="#367D04"/>
</linearGradient>
<linearGradient id="paint4_linear_464_6786" x1="39.6667" y1="145.184" x2="145.589" y2="46.7684" gradientUnits="userSpaceOnUse">
<stop stop-color="#C2C2C2"/>
<stop offset="1e-08" stop-color="#C2C2C2"/>
<stop offset="2e-08" stop-color="#C2C2C2"/>
<stop offset="4e-08" stop-color="#C2C2C2"/>
<stop offset="7e-08" stop-color="#C2C2C2"/>
<stop offset="1.5e-07" stop-color="#C2C2C2"/>
<stop offset="2.9e-07" stop-color="#C2C2C2"/>
<stop offset="5.8e-07" stop-color="#C2C2C2"/>
<stop offset="1.17e-06" stop-color="#C2C2C2"/>
<stop offset="2.33e-06" stop-color="#C2C2C2"/>
<stop offset="4.67e-06" stop-color="#C2C2C2"/>
<stop offset="9.33e-06" stop-color="#C2C2C2"/>
<stop offset="1.867e-05" stop-color="#C2C2C2"/>
<stop offset="3.734e-05" stop-color="#C2C2C2"/>
<stop offset="7.467e-05" stop-color="#C2C2C2"/>
<stop offset="0.00014934" stop-color="#C2C2C2"/>
<stop offset="0.00029869" stop-color="#C2C2C2"/>
<stop offset="0.00059737" stop-color="#C2C2C1"/>
<stop offset="0.00119474" stop-color="#C2C2C1"/>
<stop offset="0.00238949" stop-color="#C1C2BF"/>
<stop offset="0.00477897" stop-color="#C1C2BD"/>
<stop offset="0.00955794" stop-color="#BFC2B9"/>
<stop offset="0.172" stop-color="#9FC21B"/>
<stop offset="0.2957" stop-color="#66A700"/>
<stop offset="0.8118" stop-color="#4D8E05"/>
<stop offset="1" stop-color="#367D04"/>
</linearGradient>
<linearGradient id="paint5_linear_464_6786" x1="39.1434" y1="144.585" x2="145.02" y2="46.2115" gradientUnits="userSpaceOnUse">
<stop stop-color="#C2C2C2"/>
<stop offset="1e-08" stop-color="#C2C2C2"/>
<stop offset="2e-08" stop-color="#C2C2C2"/>
<stop offset="4e-08" stop-color="#C2C2C2"/>
<stop offset="7e-08" stop-color="#C2C2C2"/>
<stop offset="1.5e-07" stop-color="#C2C2C2"/>
<stop offset="2.9e-07" stop-color="#C2C2C2"/>
<stop offset="5.8e-07" stop-color="#C2C2C2"/>
<stop offset="1.17e-06" stop-color="#C2C2C2"/>
<stop offset="2.33e-06" stop-color="#C2C2C2"/>
<stop offset="4.67e-06" stop-color="#C2C2C2"/>
<stop offset="9.33e-06" stop-color="#C2C2C2"/>
<stop offset="1.867e-05" stop-color="#C2C2C2"/>
<stop offset="3.734e-05" stop-color="#C2C2C2"/>
<stop offset="7.467e-05" stop-color="#C2C2C2"/>
<stop offset="0.00014934" stop-color="#C2C2C2"/>
<stop offset="0.00029869" stop-color="#C2C2C2"/>
<stop offset="0.00059737" stop-color="#C2C2C1"/>
<stop offset="0.00119474" stop-color="#C2C2C1"/>
<stop offset="0.00238949" stop-color="#C1C2BF"/>
<stop offset="0.00477897" stop-color="#C1C2BD"/>
<stop offset="0.00955794" stop-color="#BFC2B9"/>
<stop offset="0.172" stop-color="#9FC21B"/>
<stop offset="0.2957" stop-color="#66A700"/>
<stop offset="0.8118" stop-color="#4D8E05"/>
<stop offset="1" stop-color="#367D04"/>
</linearGradient>
<linearGradient id="paint6_linear_464_6786" x1="38.4127" y1="143.82" x2="144.313" y2="45.4239" gradientUnits="userSpaceOnUse">
<stop stop-color="#C2C2C2"/>
<stop offset="1e-08" stop-color="#C2C2C2"/>
<stop offset="2e-08" stop-color="#C2C2C2"/>
<stop offset="4e-08" stop-color="#C2C2C2"/>
<stop offset="7e-08" stop-color="#C2C2C2"/>
<stop offset="1.5e-07" stop-color="#C2C2C2"/>
<stop offset="2.9e-07" stop-color="#C2C2C2"/>
<stop offset="5.8e-07" stop-color="#C2C2C2"/>
<stop offset="1.17e-06" stop-color="#C2C2C2"/>
<stop offset="2.33e-06" stop-color="#C2C2C2"/>
<stop offset="4.67e-06" stop-color="#C2C2C2"/>
<stop offset="9.33e-06" stop-color="#C2C2C2"/>
<stop offset="1.867e-05" stop-color="#C2C2C2"/>
<stop offset="3.734e-05" stop-color="#C2C2C2"/>
<stop offset="7.467e-05" stop-color="#C2C2C2"/>
<stop offset="0.00014934" stop-color="#C2C2C2"/>
<stop offset="0.00029869" stop-color="#C2C2C2"/>
<stop offset="0.00059737" stop-color="#C2C2C1"/>
<stop offset="0.00119474" stop-color="#C2C2C1"/>
<stop offset="0.00238949" stop-color="#C1C2BF"/>
<stop offset="0.00477897" stop-color="#C1C2BD"/>
<stop offset="0.00955794" stop-color="#BFC2B9"/>
<stop offset="0.172" stop-color="#9FC21B"/>
<stop offset="0.2957" stop-color="#66A700"/>
<stop offset="0.8118" stop-color="#4D8E05"/>
<stop offset="1" stop-color="#367D04"/>
</linearGradient>
<linearGradient id="paint7_linear_464_6786" x1="43.3258" y1="149.106" x2="149.236" y2="50.701" gradientUnits="userSpaceOnUse">
<stop stop-color="#C2C2C2"/>
<stop offset="1e-08" stop-color="#C2C2C2"/>
<stop offset="2e-08" stop-color="#C2C2C2"/>
<stop offset="4e-08" stop-color="#C2C2C2"/>
<stop offset="7e-08" stop-color="#C2C2C2"/>
<stop offset="1.5e-07" stop-color="#C2C2C2"/>
<stop offset="2.9e-07" stop-color="#C2C2C2"/>
<stop offset="5.8e-07" stop-color="#C2C2C2"/>
<stop offset="1.17e-06" stop-color="#C2C2C2"/>
<stop offset="2.33e-06" stop-color="#C2C2C2"/>
<stop offset="4.67e-06" stop-color="#C2C2C2"/>
<stop offset="9.33e-06" stop-color="#C2C2C2"/>
<stop offset="1.867e-05" stop-color="#C2C2C2"/>
<stop offset="3.734e-05" stop-color="#C2C2C2"/>
<stop offset="7.467e-05" stop-color="#C2C2C2"/>
<stop offset="0.00014934" stop-color="#C2C2C2"/>
<stop offset="0.00029869" stop-color="#C2C2C2"/>
<stop offset="0.00059737" stop-color="#C2C2C1"/>
<stop offset="0.00119474" stop-color="#C2C2C1"/>
<stop offset="0.00238949" stop-color="#C1C2BF"/>
<stop offset="0.00477897" stop-color="#C1C2BD"/>
<stop offset="0.00955794" stop-color="#BFC2B9"/>
<stop offset="0.172" stop-color="#9FC21B"/>
<stop offset="0.2957" stop-color="#66A700"/>
<stop offset="0.8118" stop-color="#4D8E05"/>
<stop offset="1" stop-color="#367D04"/>
</linearGradient>
<linearGradient id="paint8_linear_464_6786" x1="40.742" y1="146.342" x2="146.685" y2="47.9059" gradientUnits="userSpaceOnUse">
<stop stop-color="#C2C2C2"/>
<stop offset="1e-08" stop-color="#C2C2C2"/>
<stop offset="2e-08" stop-color="#C2C2C2"/>
<stop offset="4e-08" stop-color="#C2C2C2"/>
<stop offset="7e-08" stop-color="#C2C2C2"/>
<stop offset="1.5e-07" stop-color="#C2C2C2"/>
<stop offset="2.9e-07" stop-color="#C2C2C2"/>
<stop offset="5.8e-07" stop-color="#C2C2C2"/>
<stop offset="1.17e-06" stop-color="#C2C2C2"/>
<stop offset="2.33e-06" stop-color="#C2C2C2"/>
<stop offset="4.67e-06" stop-color="#C2C2C2"/>
<stop offset="9.33e-06" stop-color="#C2C2C2"/>
<stop offset="1.867e-05" stop-color="#C2C2C2"/>
<stop offset="3.734e-05" stop-color="#C2C2C2"/>
<stop offset="7.467e-05" stop-color="#C2C2C2"/>
<stop offset="0.00014934" stop-color="#C2C2C2"/>
<stop offset="0.00029869" stop-color="#C2C2C2"/>
<stop offset="0.00059737" stop-color="#C2C2C1"/>
<stop offset="0.00119474" stop-color="#C2C2C1"/>
<stop offset="0.00238949" stop-color="#C1C2BF"/>
<stop offset="0.00477897" stop-color="#C1C2BD"/>
<stop offset="0.00955794" stop-color="#BFC2B9"/>
<stop offset="0.172" stop-color="#9FC21B"/>
<stop offset="0.2957" stop-color="#66A700"/>
<stop offset="0.8118" stop-color="#4D8E05"/>
<stop offset="1" stop-color="#367D04"/>
</linearGradient>
<linearGradient id="paint9_linear_464_6786" x1="45.6309" y1="151.569" x2="151.516" y2="53.1877" gradientUnits="userSpaceOnUse">
<stop stop-color="#C2C2C2"/>
<stop offset="1e-08" stop-color="#C2C2C2"/>
<stop offset="2e-08" stop-color="#C2C2C2"/>
<stop offset="4e-08" stop-color="#C2C2C2"/>
<stop offset="7e-08" stop-color="#C2C2C2"/>
<stop offset="1.5e-07" stop-color="#C2C2C2"/>
<stop offset="2.9e-07" stop-color="#C2C2C2"/>
<stop offset="5.8e-07" stop-color="#C2C2C2"/>
<stop offset="1.17e-06" stop-color="#C2C2C2"/>
<stop offset="2.33e-06" stop-color="#C2C2C2"/>
<stop offset="4.67e-06" stop-color="#C2C2C2"/>
<stop offset="9.33e-06" stop-color="#C2C2C2"/>
<stop offset="1.867e-05" stop-color="#C2C2C2"/>
<stop offset="3.734e-05" stop-color="#C2C2C2"/>
<stop offset="7.467e-05" stop-color="#C2C2C2"/>
<stop offset="0.00014934" stop-color="#C2C2C2"/>
<stop offset="0.00029869" stop-color="#C2C2C2"/>
<stop offset="0.00059737" stop-color="#C2C2C1"/>
<stop offset="0.00119474" stop-color="#C2C2C1"/>
<stop offset="0.00238949" stop-color="#C1C2BF"/>
<stop offset="0.00477897" stop-color="#C1C2BD"/>
<stop offset="0.00955794" stop-color="#BFC2B9"/>
<stop offset="0.172" stop-color="#9FC21B"/>
<stop offset="0.2957" stop-color="#66A700"/>
<stop offset="0.8118" stop-color="#4D8E05"/>
<stop offset="1" stop-color="#367D04"/>
</linearGradient>
<linearGradient id="paint10_linear_464_6786" x1="48.6777" y1="154.837" x2="154.545" y2="56.4716" gradientUnits="userSpaceOnUse">
<stop stop-color="#C2C2C2"/>
<stop offset="1e-08" stop-color="#C2C2C2"/>
<stop offset="2e-08" stop-color="#C2C2C2"/>
<stop offset="4e-08" stop-color="#C2C2C2"/>
<stop offset="7e-08" stop-color="#C2C2C2"/>
<stop offset="1.5e-07" stop-color="#C2C2C2"/>
<stop offset="2.9e-07" stop-color="#C2C2C2"/>
<stop offset="5.8e-07" stop-color="#C2C2C2"/>
<stop offset="1.17e-06" stop-color="#C2C2C2"/>
<stop offset="2.33e-06" stop-color="#C2C2C2"/>
<stop offset="4.67e-06" stop-color="#C2C2C2"/>
<stop offset="9.33e-06" stop-color="#C2C2C2"/>
<stop offset="1.867e-05" stop-color="#C2C2C2"/>
<stop offset="3.734e-05" stop-color="#C2C2C2"/>
<stop offset="7.467e-05" stop-color="#C2C2C2"/>
<stop offset="0.00014934" stop-color="#C2C2C2"/>
<stop offset="0.00029869" stop-color="#C2C2C2"/>
<stop offset="0.00059737" stop-color="#C2C2C1"/>
<stop offset="0.00119474" stop-color="#C2C2C1"/>
<stop offset="0.00238949" stop-color="#C1C2BF"/>
<stop offset="0.00477897" stop-color="#C1C2BD"/>
<stop offset="0.00955794" stop-color="#BFC2B9"/>
<stop offset="0.172" stop-color="#9FC21B"/>
<stop offset="0.2957" stop-color="#66A700"/>
<stop offset="0.8118" stop-color="#4D8E05"/>
<stop offset="1" stop-color="#367D04"/>
</linearGradient>
<linearGradient id="paint11_linear_464_6786" x1="48.9183" y1="155.057" x2="154.817" y2="56.6628" gradientUnits="userSpaceOnUse">
<stop stop-color="#C2C2C2"/>
<stop offset="1e-08" stop-color="#C2C2C2"/>
<stop offset="2e-08" stop-color="#C2C2C2"/>
<stop offset="4e-08" stop-color="#C2C2C2"/>
<stop offset="7e-08" stop-color="#C2C2C2"/>
<stop offset="1.5e-07" stop-color="#C2C2C2"/>
<stop offset="2.9e-07" stop-color="#C2C2C2"/>
<stop offset="5.8e-07" stop-color="#C2C2C2"/>
<stop offset="1.17e-06" stop-color="#C2C2C2"/>
<stop offset="2.33e-06" stop-color="#C2C2C2"/>
<stop offset="4.67e-06" stop-color="#C2C2C2"/>
<stop offset="9.33e-06" stop-color="#C2C2C2"/>
<stop offset="1.867e-05" stop-color="#C2C2C2"/>
<stop offset="3.734e-05" stop-color="#C2C2C2"/>
<stop offset="7.467e-05" stop-color="#C2C2C2"/>
<stop offset="0.00014934" stop-color="#C2C2C2"/>
<stop offset="0.00029869" stop-color="#C2C2C2"/>
<stop offset="0.00059737" stop-color="#C2C2C1"/>
<stop offset="0.00119474" stop-color="#C2C2C1"/>
<stop offset="0.00238949" stop-color="#C1C2BF"/>
<stop offset="0.00477897" stop-color="#C1C2BD"/>
<stop offset="0.00955794" stop-color="#BFC2B9"/>
<stop offset="0.172" stop-color="#9FC21B"/>
<stop offset="0.2957" stop-color="#66A700"/>
<stop offset="0.8118" stop-color="#4D8E05"/>
<stop offset="1" stop-color="#367D04"/>
</linearGradient>
<linearGradient id="paint12_linear_464_6786" x1="52.1682" y1="18.6072" x2="29.34" y2="94.1068" gradientUnits="userSpaceOnUse">
<stop stop-color="white"/>
<stop offset="0.172" stop-color="#779114"/>
<stop offset="0.2957" stop-color="#81D300"/>
<stop offset="0.8118" stop-color="#5FAD07"/>
<stop offset="1" stop-color="#459C05"/>
</linearGradient>
<linearGradient id="paint13_linear_464_6786" x1="45.3013" y1="27.8738" x2="40.3921" y2="58.492" gradientUnits="userSpaceOnUse">
<stop stop-color="white"/>
<stop offset="0.172" stop-color="#779114"/>
<stop offset="0.2957" stop-color="#81D300"/>
<stop offset="0.8118" stop-color="#5FAD07"/>
<stop offset="1" stop-color="#459C05"/>
</linearGradient>
<linearGradient id="paint14_linear_464_6786" x1="-12.1401" y1="55.9534" x2="132.158" y2="55.6477" gradientUnits="userSpaceOnUse">
<stop stop-color="white"/>
<stop offset="0.172" stop-color="#779114"/>
<stop offset="0.2957" stop-color="#81D300"/>
<stop offset="0.8118" stop-color="#5FAD07"/>
<stop offset="1" stop-color="#459C05"/>
</linearGradient>
<linearGradient id="paint15_linear_464_6786" x1="-12.1484" y1="54.66" x2="132.174" y2="54.3542" gradientUnits="userSpaceOnUse">
<stop stop-color="white"/>
<stop offset="0.172" stop-color="#779114"/>
<stop offset="0.2957" stop-color="#81D300"/>
<stop offset="0.8118" stop-color="#5FAD07"/>
<stop offset="1" stop-color="#459C05"/>
</linearGradient>
<linearGradient id="paint16_linear_464_6786" x1="-12.1529" y1="56.7829" x2="132.175" y2="56.4772" gradientUnits="userSpaceOnUse">
<stop stop-color="white"/>
<stop offset="0.172" stop-color="#779114"/>
<stop offset="0.2957" stop-color="#81D300"/>
<stop offset="0.8118" stop-color="#5FAD07"/>
<stop offset="1" stop-color="#459C05"/>
</linearGradient>
<linearGradient id="paint17_linear_464_6786" x1="-12.1395" y1="55.9847" x2="132.159" y2="55.6791" gradientUnits="userSpaceOnUse">
<stop stop-color="white"/>
<stop offset="0.172" stop-color="#779114"/>
<stop offset="0.2957" stop-color="#81D300"/>
<stop offset="0.8118" stop-color="#5FAD07"/>
<stop offset="1" stop-color="#459C05"/>
</linearGradient>
<linearGradient id="paint18_linear_464_6786" x1="-12.13" y1="54.9266" x2="132.148" y2="54.6209" gradientUnits="userSpaceOnUse">
<stop stop-color="white"/>
<stop offset="0.172" stop-color="#779114"/>
<stop offset="0.2957" stop-color="#81D300"/>
<stop offset="0.8118" stop-color="#5FAD07"/>
<stop offset="1" stop-color="#459C05"/>
</linearGradient>
<linearGradient id="paint19_linear_464_6786" x1="-12.1264" y1="62.1528" x2="132.169" y2="61.847" gradientUnits="userSpaceOnUse">
<stop stop-color="white"/>
<stop offset="0.172" stop-color="#779114"/>
<stop offset="0.2957" stop-color="#81D300"/>
<stop offset="0.8118" stop-color="#5FAD07"/>
<stop offset="1" stop-color="#459C05"/>
</linearGradient>
<linearGradient id="paint20_linear_464_6786" x1="-12.1259" y1="58.3608" x2="132.127" y2="58.0551" gradientUnits="userSpaceOnUse">
<stop stop-color="white"/>
<stop offset="0.172" stop-color="#779114"/>
<stop offset="0.2957" stop-color="#81D300"/>
<stop offset="0.8118" stop-color="#5FAD07"/>
<stop offset="1" stop-color="#459C05"/>
</linearGradient>
<linearGradient id="paint21_linear_464_6786" x1="-12.12" y1="65.53" x2="132.17" y2="65.2242" gradientUnits="userSpaceOnUse">
<stop stop-color="white"/>
<stop offset="0.172" stop-color="#779114"/>
<stop offset="0.2957" stop-color="#81D300"/>
<stop offset="0.8118" stop-color="#5FAD07"/>
<stop offset="1" stop-color="#459C05"/>
</linearGradient>
<linearGradient id="paint22_linear_464_6786" x1="-12.1184" y1="70.0022" x2="132.198" y2="69.6965" gradientUnits="userSpaceOnUse">
<stop stop-color="white"/>
<stop offset="0.172" stop-color="#779114"/>
<stop offset="0.2957" stop-color="#81D300"/>
<stop offset="0.8118" stop-color="#5FAD07"/>
<stop offset="1" stop-color="#459C05"/>
</linearGradient>
<linearGradient id="paint23_linear_464_6786" x1="-12.0686" y1="70.3285" x2="132.232" y2="70.0227" gradientUnits="userSpaceOnUse">
<stop stop-color="white"/>
<stop offset="0.172" stop-color="#779114"/>
<stop offset="0.2957" stop-color="#81D300"/>
<stop offset="0.8118" stop-color="#5FAD07"/>
<stop offset="1" stop-color="#459C05"/>
</linearGradient>
<linearGradient id="paint24_linear_464_6786" x1="161.877" y1="54.6192" x2="89.4696" y2="23.7132" gradientUnits="userSpaceOnUse">
<stop stop-color="#BFBFBF"/>
<stop offset="0.172" stop-color="#96BF00"/>
<stop offset="0.2957" stop-color="#52A000"/>
<stop offset="0.8118" stop-color="#2C7D00"/>
<stop offset="1" stop-color="#0A6B00"/>
</linearGradient>
<linearGradient id="paint25_linear_464_6786" x1="153.427" y1="46.8018" x2="123.578" y2="38.5669" gradientUnits="userSpaceOnUse">
<stop stop-color="#BFBFBF"/>
<stop offset="0.172" stop-color="#96BF00"/>
<stop offset="0.2957" stop-color="#52A000"/>
<stop offset="0.8118" stop-color="#2C7D00"/>
<stop offset="1" stop-color="#0A6B00"/>
</linearGradient>
<linearGradient id="paint26_linear_464_6786" x1="131.873" y1="-13.3299" x2="116.839" y2="130.35" gradientUnits="userSpaceOnUse">
<stop stop-color="#BFBFBF"/>
<stop offset="0.172" stop-color="#96BF00"/>
<stop offset="0.2957" stop-color="#52A000"/>
<stop offset="0.8118" stop-color="#2C7D00"/>
<stop offset="1" stop-color="#0A6B00"/>
</linearGradient>
<linearGradient id="paint27_linear_464_6786" x1="133.161" y1="-13.1734" x2="118.135" y2="130.43" gradientUnits="userSpaceOnUse">
<stop stop-color="#BFBFBF"/>
<stop offset="0.172" stop-color="#96BF00"/>
<stop offset="0.2957" stop-color="#52A000"/>
<stop offset="0.8118" stop-color="#2C7D00"/>
<stop offset="1" stop-color="#0A6B00"/>
</linearGradient>
<linearGradient id="paint28_linear_464_6786" x1="131.056" y1="-13.4172" x2="116.022" y2="130.269" gradientUnits="userSpaceOnUse">
<stop stop-color="#BFBFBF"/>
<stop offset="0.172" stop-color="#96BF00"/>
<stop offset="0.2957" stop-color="#52A000"/>
<stop offset="0.8118" stop-color="#2C7D00"/>
<stop offset="1" stop-color="#0A6B00"/>
</linearGradient>
<linearGradient id="paint29_linear_464_6786" x1="131.844" y1="-13.3167" x2="116.815" y2="130.319" gradientUnits="userSpaceOnUse">
<stop stop-color="#BFBFBF"/>
<stop offset="0.172" stop-color="#96BF00"/>
<stop offset="0.2957" stop-color="#52A000"/>
<stop offset="0.8118" stop-color="#2C7D00"/>
<stop offset="1" stop-color="#0A6B00"/>
</linearGradient>
<linearGradient id="paint30_linear_464_6786" x1="132.902" y1="-13.2232" x2="117.87" y2="130.443" gradientUnits="userSpaceOnUse">
<stop stop-color="#BFBFBF"/>
<stop offset="0.172" stop-color="#96BF00"/>
<stop offset="0.2957" stop-color="#52A000"/>
<stop offset="0.8118" stop-color="#2C7D00"/>
<stop offset="1" stop-color="#0A6B00"/>
</linearGradient>
<linearGradient id="paint31_linear_464_6786" x1="125.718" y1="-13.96" x2="110.688" y2="129.679" gradientUnits="userSpaceOnUse">
<stop stop-color="#BFBFBF"/>
<stop offset="0.172" stop-color="#96BF00"/>
<stop offset="0.2957" stop-color="#52A000"/>
<stop offset="0.8118" stop-color="#2C7D00"/>
<stop offset="1" stop-color="#0A6B00"/>
</linearGradient>
<linearGradient id="paint32_linear_464_6786" x1="129.483" y1="-13.5572" x2="114.457" y2="130.052" gradientUnits="userSpaceOnUse">
<stop stop-color="#BFBFBF"/>
<stop offset="0.172" stop-color="#96BF00"/>
<stop offset="0.2957" stop-color="#52A000"/>
<stop offset="0.8118" stop-color="#2C7D00"/>
<stop offset="1" stop-color="#0A6B00"/>
</linearGradient>
<linearGradient id="paint33_linear_464_6786" x1="122.363" y1="-14.3263" x2="107.329" y2="129.356" gradientUnits="userSpaceOnUse">
<stop stop-color="#BFBFBF"/>
<stop offset="0.172" stop-color="#96BF00"/>
<stop offset="0.2957" stop-color="#52A000"/>
<stop offset="0.8118" stop-color="#2C7D00"/>
<stop offset="1" stop-color="#0A6B00"/>
</linearGradient>
<linearGradient id="paint34_linear_464_6786" x1="117.918" y1="-14.7751" x2="102.889" y2="128.863" gradientUnits="userSpaceOnUse">
<stop stop-color="#BFBFBF"/>
<stop offset="0.172" stop-color="#96BF00"/>
<stop offset="0.2957" stop-color="#52A000"/>
<stop offset="0.8118" stop-color="#2C7D00"/>
<stop offset="1" stop-color="#0A6B00"/>
</linearGradient>
<linearGradient id="paint35_linear_464_6786" x1="117.589" y1="-14.7545" x2="102.561" y2="128.868" gradientUnits="userSpaceOnUse">
<stop stop-color="#BFBFBF"/>
<stop offset="0.172" stop-color="#96BF00"/>
<stop offset="0.2957" stop-color="#52A000"/>
<stop offset="0.8118" stop-color="#2C7D00"/>
<stop offset="1" stop-color="#0A6B00"/>
</linearGradient>
<linearGradient id="paint36_linear_464_6786" x1="139.696" y1="31.1381" x2="62.94" y2="49.0928" gradientUnits="userSpaceOnUse">
<stop stop-color="white"/>
<stop offset="0.172" stop-color="#779114"/>
<stop offset="0.2957" stop-color="#81D300"/>
<stop offset="0.8118" stop-color="#5FAD07"/>
<stop offset="1" stop-color="#459C05"/>
</linearGradient>
<linearGradient id="paint37_linear_464_6786" x1="128.246" y1="29.8598" x2="99.2757" y2="40.9076" gradientUnits="userSpaceOnUse">
<stop stop-color="white"/>
<stop offset="0.172" stop-color="#779114"/>
<stop offset="0.2957" stop-color="#81D300"/>
<stop offset="0.8118" stop-color="#5FAD07"/>
<stop offset="1" stop-color="#459C05"/>
</linearGradient>
<linearGradient id="paint38_linear_464_6786" x1="75.2687" y1="-5.73889" x2="148.109" y2="118.763" gradientUnits="userSpaceOnUse">
<stop stop-color="white"/>
<stop offset="0.172" stop-color="#779114"/>
<stop offset="0.2957" stop-color="#81D300"/>
<stop offset="0.8118" stop-color="#5FAD07"/>
<stop offset="1" stop-color="#459C05"/>
</linearGradient>
<linearGradient id="paint39_linear_464_6786" x1="76.3886" y1="-6.39004" x2="149.227" y2="118.108" gradientUnits="userSpaceOnUse">
<stop stop-color="white"/>
<stop offset="0.172" stop-color="#779114"/>
<stop offset="0.2957" stop-color="#81D300"/>
<stop offset="0.8118" stop-color="#5FAD07"/>
<stop offset="1" stop-color="#459C05"/>
</linearGradient>
<linearGradient id="paint40_linear_464_6786" x1="74.5513" y1="-5.32987" x2="147.405" y2="119.195" gradientUnits="userSpaceOnUse">
<stop stop-color="white"/>
<stop offset="0.172" stop-color="#779114"/>
<stop offset="0.2957" stop-color="#81D300"/>
<stop offset="0.8118" stop-color="#5FAD07"/>
<stop offset="1" stop-color="#459C05"/>
</linearGradient>
<linearGradient id="paint41_linear_464_6786" x1="75.2566" y1="-5.70976" x2="148.077" y2="118.759" gradientUnits="userSpaceOnUse">
<stop stop-color="white"/>
<stop offset="0.172" stop-color="#779114"/>
<stop offset="0.2957" stop-color="#81D300"/>
<stop offset="0.8118" stop-color="#5FAD07"/>
<stop offset="1" stop-color="#459C05"/>
</linearGradient>
<linearGradient id="paint42_linear_464_6786" x1="76.152" y1="-6.2751" x2="149.008" y2="118.254" gradientUnits="userSpaceOnUse">
<stop stop-color="white"/>
<stop offset="0.172" stop-color="#779114"/>
<stop offset="0.2957" stop-color="#81D300"/>
<stop offset="0.8118" stop-color="#5FAD07"/>
<stop offset="1" stop-color="#459C05"/>
</linearGradient>
<linearGradient id="paint43_linear_464_6786" x1="69.925" y1="-2.59138" x2="142.739" y2="121.865" gradientUnits="userSpaceOnUse">
<stop stop-color="white"/>
<stop offset="0.172" stop-color="#779114"/>
<stop offset="0.2957" stop-color="#81D300"/>
<stop offset="0.8118" stop-color="#5FAD07"/>
<stop offset="1" stop-color="#459C05"/>
</linearGradient>
<linearGradient id="paint44_linear_464_6786" x1="73.1907" y1="-4.52364" x2="146.041" y2="119.995" gradientUnits="userSpaceOnUse">
<stop stop-color="white"/>
<stop offset="0.172" stop-color="#779114"/>
<stop offset="0.2957" stop-color="#81D300"/>
<stop offset="0.8118" stop-color="#5FAD07"/>
<stop offset="1" stop-color="#459C05"/>
</linearGradient>
<linearGradient id="paint45_linear_464_6786" x1="67.0021" y1="-0.899674" x2="139.84" y2="123.598" gradientUnits="userSpaceOnUse">
<stop stop-color="white"/>
<stop offset="0.172" stop-color="#779114"/>
<stop offset="0.2957" stop-color="#81D300"/>
<stop offset="0.8118" stop-color="#5FAD07"/>
<stop offset="1" stop-color="#459C05"/>
</linearGradient>
<linearGradient id="paint46_linear_464_6786" x1="63.1432" y1="1.35755" x2="135.982" y2="125.856" gradientUnits="userSpaceOnUse">
<stop stop-color="white"/>
<stop offset="0.172" stop-color="#779114"/>
<stop offset="0.2957" stop-color="#81D300"/>
<stop offset="0.8118" stop-color="#5FAD07"/>
<stop offset="1" stop-color="#459C05"/>
</linearGradient>
<linearGradient id="paint47_linear_464_6786" x1="62.8952" y1="1.58082" x2="135.71" y2="126.039" gradientUnits="userSpaceOnUse">
<stop stop-color="white"/>
<stop offset="0.172" stop-color="#779114"/>
<stop offset="0.2957" stop-color="#81D300"/>
<stop offset="0.8118" stop-color="#5FAD07"/>
<stop offset="1" stop-color="#459C05"/>
</linearGradient>
</defs>
</svg>
