<svg width="25" height="26" viewBox="0 0 25 26" className="fill-current" xmlns="http://www.w3.org/2000/svg">
<g id="surface1">
<path id="Vector" d="M17.299 15.335C20.3 11.0974 19.2963 5.22945 15.0587 2.22919C10.821 -0.771072 4.95315 0.231883 1.95288 4.47025C-1.04738 8.7079 -0.044423 14.5751 4.19394 17.5753C7.21858 19.7167 11.2175 19.8816 14.4077 17.9976L21.3395 24.8878C22.088 25.6757 23.3333 25.7072 24.1211 24.9588C24.909 24.2111 24.9406 22.9658 24.1928 22.1779C24.1692 22.1528 24.1462 22.1299 24.1211 22.1062L17.299 15.335ZM9.62022 15.9774C6.27154 15.9781 3.55661 13.2653 3.55446 9.9166C3.55374 6.56792 6.26652 3.85299 9.61592 3.85156C12.9603 3.85012 15.6738 6.5586 15.6803 9.90298C15.686 13.2524 12.9746 15.9716 9.62453 15.9774C9.62309 15.9774 9.62237 15.9774 9.62022 15.9774Z" fill="currentColor"/>
</g>
</svg>
