<svg className="fill-current" width="20" height="20" viewBox="0 0 20 20"  xmlns="http://www.w3.org/2000/svg">
<g id="Group">
<path id="Vector" d="M12.5957 5.27344H3.45895C3.29715 5.27344 3.16598 5.40461 3.16598 5.56641C3.16598 5.7282 3.29715 5.85938 3.45895 5.85938H12.5957C12.7575 5.85938 12.8887 5.7282 12.8887 5.56641C12.8887 5.40461 12.7575 5.27344 12.5957 5.27344ZM12.4004 1.75781H10.4621C10.3004 1.75781 10.1692 1.88898 10.1692 2.05078C10.1692 2.21258 10.3004 2.34375 10.4621 2.34375H12.3028V3.51562H3.75191V2.34375H9.09492C9.25672 2.34375 9.38789 2.21258 9.38789 2.05078C9.38789 1.88898 9.25672 1.75781 9.09492 1.75781H3.65426C3.385 1.75781 3.16598 1.97684 3.16598 2.24609V3.61328C3.16598 3.88254 3.385 4.10156 3.65426 4.10156H12.4004C12.6696 4.10156 12.8887 3.88254 12.8887 3.61328V2.24609C12.8887 1.97684 12.6696 1.75781 12.4004 1.75781ZM12.5957 6.44531H3.45895C3.29715 6.44531 3.16598 6.57648 3.16598 6.73828C3.16598 6.90008 3.29715 7.03125 3.45895 7.03125H12.5957C12.7575 7.03125 12.8887 6.90008 12.8887 6.73828C12.8887 6.57648 12.7575 6.44531 12.5957 6.44531ZM12.5957 8.78906H9.31836C9.15656 8.78906 9.02539 8.92023 9.02539 9.08203C9.02539 9.24383 9.15656 9.375 9.31836 9.375H12.5957C12.7575 9.375 12.8887 9.24383 12.8887 9.08203C12.8887 8.92023 12.7575 8.78906 12.5957 8.78906ZM12.5957 7.61719H9.31836C9.15656 7.61719 9.02539 7.74836 9.02539 7.91016C9.02539 8.07195 9.15656 8.20312 9.31836 8.20312H12.5957C12.7575 8.20312 12.8887 8.07195 12.8887 7.91016C12.8887 7.74836 12.7575 7.61719 12.5957 7.61719ZM16.0547 12.0913V11.4258C16.0547 10.7171 15.5489 10.1245 14.8793 9.9898V1.46484C14.8793 0.657109 14.2222 0 13.4145 0H2.64023C1.8325 0 1.17539 0.657109 1.17539 1.46484V7.64605C0.50582 7.78078 0 8.3734 0 9.08203V13.2391C0 13.4009 0.131172 13.532 0.292969 13.532C0.454766 13.532 0.585938 13.4009 0.585938 13.2391V9.08203C0.585938 8.59738 0.980195 8.20312 1.46484 8.20312H7.18125C7.5134 8.20312 7.80184 8.42824 7.88258 8.75027L8.08375 9.55574C8.22949 10.1393 8.75148 10.5469 9.35312 10.5469H14.5898C15.0745 10.5469 15.4688 10.9411 15.4688 11.4258V12.1333C13.5607 12.4134 12.0911 14.061 12.0911 16.0455C12.0911 17.468 12.8462 18.7172 13.9764 19.414H1.46484C0.980195 19.4141 0.585938 19.0198 0.585938 18.5352V14.6063C0.585938 14.4445 0.454766 14.3133 0.292969 14.3133C0.131172 14.3133 0 14.4445 0 14.6063V18.5352C0 19.3429 0.657109 20 1.46484 20H14.5898C14.7799 20 14.963 19.9641 15.1357 19.8942C15.428 19.9632 15.7325 20 16.0456 20C18.2261 20 20 18.2261 20 16.0456C20 13.8681 18.231 12.0962 16.0547 12.0913ZM14.2934 9.96094H9.35312C9.0209 9.96094 8.73269 9.73594 8.65223 9.41379L8.45098 8.60809C8.30477 8.02465 7.78262 7.61719 7.18125 7.61719H1.76133V1.46484C1.76133 0.980195 2.15559 0.585938 2.64023 0.585938H13.4145C13.8991 0.585938 14.2934 0.980195 14.2934 1.46484V9.96094ZM16.0456 19.4141C14.1882 19.4141 12.6771 17.903 12.6771 16.0456C12.6771 14.1882 14.1882 12.6771 16.0456 12.6771C17.903 12.6771 19.4141 14.1882 19.4141 16.0456C19.4141 17.903 17.903 19.4141 16.0456 19.4141ZM17.453 16.5232H17.0195V14.1963C17.0195 13.9129 16.789 13.6824 16.5056 13.6824H15.5855C15.3022 13.6824 15.0716 13.9129 15.0716 14.1963V16.5232H14.6382C14.4424 16.5232 14.2675 16.64 14.1925 16.8209C14.1176 17.0018 14.1586 17.2082 14.2971 17.3466L15.6822 18.7317C15.7824 18.8319 15.914 18.882 16.0456 18.882C16.1772 18.882 16.3088 18.8319 16.409 18.7317L17.7941 17.3466C17.9326 17.2082 17.9736 17.0018 17.8987 16.8209C17.8237 16.64 17.6488 16.5232 17.453 16.5232ZM16.0456 18.2665L14.8882 17.1091H15.1437C15.427 17.1091 15.6576 16.8786 15.6576 16.5952V14.2684H16.4336V16.5952C16.4336 16.8786 16.6641 17.1091 16.9475 17.1091H17.2029L16.0456 18.2665ZM11.2327 13.9834C11.3945 13.9834 11.5256 13.8522 11.5256 13.6904C11.5256 13.5286 11.3945 13.3974 11.2327 13.3974H10.1791C10.0173 13.3974 9.88617 13.5286 9.88617 13.6904V16.2897C9.88617 16.4515 10.0173 16.5827 10.1791 16.5827C10.3409 16.5827 10.4721 16.4515 10.4721 16.2897V15.2584H11.149C11.3108 15.2584 11.442 15.1272 11.442 14.9654C11.442 14.8036 11.3108 14.6725 11.149 14.6725H10.4721V13.9834H11.2327ZM7.39512 16.5827H7.39621C7.41797 16.5826 7.93094 16.5806 8.13582 16.5771C8.885 16.564 9.42875 15.9088 9.42875 15.0192C9.42875 14.0841 8.89863 13.4557 8.10965 13.4557H7.38996C7.31215 13.4557 7.23758 13.4867 7.18262 13.5418C7.12766 13.5968 7.09684 13.6715 7.09699 13.7493V13.7513V16.2485C7.09773 16.4159 7.2259 16.584 7.39512 16.5827ZM8.10965 14.0416C8.6502 14.0416 8.84281 14.5466 8.84281 15.0192C8.84281 15.682 8.48258 15.985 8.12559 15.9912C8.02527 15.9929 7.84406 15.9943 7.68707 15.9952C7.68609 15.6947 7.68398 14.3541 7.68344 14.0416H8.10965V14.0416ZM5.115 16.2897V15.4437C5.27016 15.4429 5.45035 15.4421 5.55117 15.4421C6.12816 15.4421 6.59754 14.9791 6.59754 14.4102C6.59754 13.8412 6.12813 13.3782 5.55117 13.3782H4.82203C4.67719 13.3754 4.52297 13.5065 4.52906 13.6712V16.2897C4.52906 16.4515 4.66023 16.5827 4.82203 16.5827C4.98383 16.5827 5.115 16.4515 5.115 16.2897ZM5.55113 13.9642C5.8007 13.9642 6.01156 14.1684 6.01156 14.4102C6.01156 14.6519 5.8007 14.8561 5.55113 14.8561C5.45105 14.8561 5.27309 14.857 5.11844 14.8577C5.11762 14.6982 5.11633 14.131 5.11586 13.9642H5.55113Z" />
</g>
</svg>
