<svg className="fill-current" width="16" height="20" viewBox="0 0 16 20" xmlns="http://www.w3.org/2000/svg">
<g id="Group">
<path id="Vector" d="M15.5689 4.20241L15.3031 3.93655L11.822 0.455517L11.5562 0.189655C11.4358 0.0693103 11.2689 0 11.0982 0H1.09064C0.681678 0 0.241333 0.315862 0.241333 1.00897V13.4483V19.1507V19.3103C0.241333 19.599 0.531678 19.8803 0.875126 19.969C0.892368 19.9734 0.908919 19.98 0.92685 19.9834C0.980643 19.9941 1.03547 20 1.09064 20H14.9093C14.9644 20 15.0193 19.9941 15.0731 19.9834C15.091 19.98 15.1075 19.9734 15.1248 19.969C15.4682 19.8803 15.7586 19.599 15.7586 19.3103V19.1507V13.4483V4.82C15.7586 4.55552 15.7268 4.36034 15.5689 4.20241ZM14.5293 4.13793H11.6206V1.22931L14.5293 4.13793ZM1.09064 19.3103C1.06616 19.3103 1.04409 19.3014 1.02237 19.2934C0.968574 19.2679 0.930988 19.2141 0.930988 19.1507V14.1379H15.0689V19.1507C15.0689 19.2141 15.0313 19.2676 14.9775 19.2934C14.9558 19.3014 14.9337 19.3103 14.9093 19.3103H1.09064ZM0.930988 13.4483V1.00897C0.930988 0.934138 0.942368 0.689655 1.09064 0.689655H10.951C10.9396 0.733103 10.931 0.777931 10.931 0.824483V4.82759H14.9341C14.9806 4.82759 15.0251 4.81897 15.0686 4.80759C15.0686 4.81276 15.0689 4.81483 15.0689 4.82V13.4483H0.930988Z" />
<path id="Vector_2" d="M5.60036 15.429C5.48553 15.3349 5.35587 15.2638 5.21139 15.2169C5.06691 15.1697 4.9207 15.1462 4.77311 15.1462H3.7738V18.6207H4.33967V17.3666H4.75932C4.94139 17.3666 5.10829 17.34 5.25898 17.2866C5.40967 17.2331 5.53863 17.1576 5.64553 17.0604C5.75242 16.9631 5.83553 16.8428 5.89553 16.6997C5.95518 16.5566 5.98518 16.3973 5.98518 16.2211C5.98518 16.0545 5.94967 15.9045 5.87898 15.7707C5.80829 15.6369 5.71518 15.5235 5.60036 15.429ZM5.38587 16.5769C5.35105 16.6728 5.30587 16.7473 5.24932 16.8007C5.19277 16.8542 5.1307 16.8928 5.06311 16.9162C4.99553 16.9397 4.92691 16.9518 4.85794 16.9518H4.33932V15.5752H4.76346C4.90794 15.5752 5.02415 15.598 5.11242 15.6435C5.20036 15.689 5.26863 15.7456 5.3176 15.8131C5.36622 15.8807 5.39829 15.9514 5.41415 16.0252C5.42967 16.099 5.4376 16.1642 5.4376 16.2207C5.4376 16.3624 5.42036 16.4811 5.38587 16.5769Z" />
<path id="Vector_3" d="M9.0185 15.6552C8.8723 15.5014 8.6885 15.3776 8.46678 15.2852C8.24505 15.1928 7.98816 15.1462 7.69609 15.1462H6.64954V18.6207H7.96471C8.0085 18.6207 8.07609 18.6152 8.16747 18.6042C8.2585 18.5931 8.35919 18.5683 8.46919 18.5287C8.57919 18.4893 8.69298 18.4304 8.81092 18.3518C8.92885 18.2731 9.03471 18.1656 9.12919 18.0287C9.22368 17.8918 9.30126 17.7221 9.36264 17.5193C9.42402 17.3166 9.45471 17.0721 9.45471 16.7862C9.45471 16.5787 9.4185 16.3766 9.34643 16.1804C9.27367 15.9845 9.16471 15.8093 9.0185 15.6552ZM8.60609 17.838C8.43643 18.0831 8.15988 18.2056 7.77643 18.2056H7.2154V15.5749H7.5454C7.81574 15.5749 8.03574 15.6104 8.2054 15.6811C8.37505 15.7518 8.50954 15.8445 8.6085 15.9593C8.70747 16.0742 8.77402 16.2021 8.80885 16.3435C8.84333 16.4849 8.86057 16.628 8.86057 16.7724C8.86057 17.2376 8.77574 17.5931 8.60609 17.838Z" />
<path id="Vector_4" d="M10.2754 18.6207H10.8506V17.0556H12.3026V16.669H10.8506V15.5752H12.4485V15.1462H10.2754V18.6207Z" />
<path id="Vector_5" d="M11.2514 7.9177C10.9345 7.9177 10.5455 7.95908 10.0934 8.04115C9.46239 7.37149 8.80377 6.39356 8.33895 5.43356C8.79998 3.49253 8.56929 3.2177 8.46757 3.08804C8.35929 2.95011 8.20653 2.72632 8.03274 2.72632C7.95998 2.72632 7.76136 2.75942 7.68239 2.78563C7.48377 2.85184 7.37688 3.00494 7.29136 3.20459C7.04757 3.77459 7.38205 4.74632 7.72619 5.49528C7.43205 6.66528 6.9386 8.06563 6.41998 9.20218C5.11309 9.8008 4.41895 10.3887 4.35619 10.9498C4.33343 11.1539 4.38171 11.4536 4.74067 11.7229C4.83895 11.7963 4.95412 11.8353 5.07412 11.8353C5.37584 11.8353 5.68067 11.6043 6.03343 11.1087C6.29067 10.7474 6.56688 10.2546 6.85515 9.64287C7.7786 9.23908 8.92102 8.87425 9.89929 8.66977C10.4441 9.19287 10.932 9.4577 11.3514 9.4577C11.6603 9.4577 11.9252 9.31563 12.1169 9.04701C12.3165 8.76735 12.362 8.51701 12.2514 8.30218C12.1186 8.04391 11.7914 7.9177 11.2514 7.9177ZM5.08171 11.2532C4.92033 11.1294 4.92964 11.046 4.93309 11.0146C4.95446 10.8229 5.25481 10.4825 5.99171 10.0684C5.43309 11.1001 5.13309 11.237 5.08171 11.2532ZM7.90929 3.34908C7.92412 3.34425 8.26964 3.72873 7.9424 4.45804C7.45067 3.95494 7.8755 3.36046 7.90929 3.34908ZM7.19653 8.87529C7.54653 8.04115 7.87205 7.12011 8.1186 6.26701C8.50584 6.96287 8.97102 7.63804 9.43653 8.17873C8.70067 8.35149 7.91722 8.59529 7.19653 8.87529ZM11.6452 8.71011C11.5389 8.85873 11.3086 8.86218 11.2279 8.86218C11.0441 8.86218 10.9755 8.75287 10.6945 8.53666C10.9262 8.50701 11.1448 8.49942 11.3189 8.49942C11.6255 8.49942 11.6817 8.5446 11.7241 8.56735C11.7165 8.59184 11.6965 8.63804 11.6452 8.71011Z" />
</g>
</svg>
