<svg width="86" height="86" viewBox="0 0 86 86" fill="none" xmlns="http://www.w3.org/2000/svg">
<g id="Project Detail / Icons / Phone 2">
<circle id="Ellipse 12" opacity="0.15" cx="43" cy="43" r="43" fill="#00730C"/>
<circle id="Ellipse 11" opacity="0.2" cx="43" cy="43" r="34" fill="#00730C"/>
<circle id="Ellipse 10" cx="43" cy="43" r="25" fill="#00730C"/>
<g id="Project Detail / Icons / Phone">
<g id="Navbar / Phone Icon">
<g id="Group">
<path id="Vector" d="M42.9987 28.001C34.7282 28.001 28 34.7291 28 42.9997C28 51.2703 34.7282 57.9985 42.9987 57.9985C46.3334 57.9985 49.4907 56.9273 52.1604 54.8737C53.2204 53.9438 53.2016 52.6164 52.7117 51.714C52.4017 51.1428 51.9292 50.7515 51.3805 50.5591L51.6317 50.2779C52.0067 49.8567 52.1717 49.2954 52.0829 48.7393C51.9955 48.1831 51.6655 47.6994 51.1793 47.4131L47.8783 45.4808C47.1296 45.0433 46.1072 45.2045 45.531 45.852L44.7986 46.6757C44.6786 46.8107 44.5124 46.8857 44.3324 46.8857C44.1187 46.8857 43.9287 46.7832 43.8112 46.6057L39.7878 40.5349C39.6853 40.3812 39.6578 40.1975 39.7078 40.02C39.7578 39.8413 39.8778 39.7013 40.0465 39.6238L41.1977 39.0888C42.0064 38.7151 42.4413 37.8139 42.2326 36.949L41.3364 33.2318C41.0689 32.1206 39.7715 31.4844 38.7254 31.9707L37.698 32.4469C36.1794 33.1518 35.0607 34.483 34.6282 36.1003L34.4407 36.8052C34.102 38.0739 34.2195 39.4288 34.7719 40.6199L35.6956 42.6122C37.0505 45.5357 38.9003 48.1655 41.1926 50.4303L41.955 51.1828C43.0874 52.3014 44.5861 52.9463 46.1772 52.9976L46.3834 53.0014C47.7608 53.0014 49.0882 52.5451 50.1718 51.729C50.1931 51.7252 50.2143 51.7302 50.2368 51.724C51.0868 51.4865 51.5067 52.114 51.6142 52.3115C51.8666 52.779 51.8792 53.4614 51.3692 53.9114C48.9519 55.7687 46.0584 56.7511 43.0011 56.7511C35.4205 56.7511 29.2523 50.5829 29.2523 43.0022C29.2523 35.4216 35.4206 29.2534 43.0013 29.2534C50.5819 29.2534 56.7501 35.4216 56.7501 43.0022C56.7501 43.3472 57.0301 43.6272 57.3751 43.6272C57.7201 43.6272 58.0001 43.3472 58.0001 43.0022C57.9975 34.7292 51.268 28.001 42.9987 28.001Z" fill="white"/>
</g>
</g>
</g>
</g>
</svg>
