<svg id="visual" viewBox="0 0 900 600" width="900" height="600" xmlns="http://www.w3.org/2000/svg" xmlns:xlink="http://www.w3.org/1999/xlink" version="1.1"><rect x="0" y="0" width="900" height="600" fill="#002233"></rect><path d="M51 600L60.5 580C70 560 89 520 86 480C83 440 58 400 47.2 360C36.3 320 39.7 280 90.2 240C140.7 200 238.3 160 339.5 120C440.7 80 545.3 40 597.7 20L650 0L900 0L900 20C900 40 900 80 900 120C900 160 900 200 900 240C900 280 900 320 900 360C900 400 900 440 900 480C900 520 900 560 900 580L900 600Z" fill="#0066FF" stroke-linecap="round" stroke-linejoin="miter"></path></svg>